<?xml version="1.0" encoding="UTF-8"?>
<!DOCTYPE svg PUBLIC "-//W3C//DTD SVG 1.1//EN" "http://www.w3.org/Graphics/SVG/1.1/DTD/svg11.dtd">
<!-- Creator: CorelDRAW X7 -->
<svg xmlns="http://www.w3.org/2000/svg" xml:space="preserve" width="71.6316mm" height="23.4273mm" version="1.1" style="shape-rendering:geometricPrecision; text-rendering:geometricPrecision; image-rendering:optimizeQuality; fill-rule:evenodd; clip-rule:evenodd"
viewBox="0 0 6492 2123"
 xmlns:xlink="http://www.w3.org/1999/xlink">
 <defs>
  <style type="text/css">
   <![CDATA[
    .fil1 {fill:#FF3399}
    .fil0 {fill:#FF3399;fill-rule:nonzero}
   ]]>
  </style>
 </defs>
 <g id="__x0023_Layer_x0020_1">
  <metadata id="CorelCorpID_0Corel-Layer"/>
  <polygon class="fil0" points="3676,2083 3676,700 3925,700 3925,2083 "/>
  <polygon class="fil0" points="6242,2108 6242,1177 6492,1177 6492,2108 "/>
  <g id="_2393691085376">
   <path class="fil1" d="M5885 34c-4,0 -7,2 -8,6 3,-2 7,-2 8,-6z"/>
   <path class="fil1" d="M5883 45c-1,3 -6,2 -7,6 3,-1 7,-1 7,-6z"/>
   <path class="fil1" d="M5857 55c-4,1 -2,3 -5,7 2,0 3,-2 5,-3 0,-2 -1,-2 0,-4z"/>
   <path class="fil1" d="M5746 85c-1,0 -3,0 -4,1 0,3 -3,4 -3,7 4,-1 7,-4 7,-8z"/>
   <path class="fil1" d="M5870 58c0,-3 -7,1 -7,4 2,1 3,-2 7,-2 -1,-1 -1,-2 0,-2z"/>
   <path class="fil1" d="M5735 95c-3,3 -5,1 -7,2 0,3 2,3 6,3 0,-2 1,-3 1,-5z"/>
   <path class="fil1" d="M5813 92c-1,-3 -7,2 -6,6 4,0 2,-6 6,-6z"/>
   <path class="fil1" d="M5703 121c-1,1 -3,4 -3,2 -2,1 -1,5 -2,7 -3,-1 -7,1 -10,4 4,4 -2,9 -4,14 2,-2 3,-5 8,-6 -3,-2 -1,-3 1,-7 1,0 2,1 4,0 0,-3 2,-5 6,-6 0,-4 1,-7 0,-8z"/>
   <path class="fil1" d="M5801 101l-4 1c0,1 1,3 -1,4 0,2 6,-2 5,-5z"/>
   <path class="fil1" d="M5806 124c-3,2 -4,5 -5,9 2,-2 7,-6 5,-9z"/>
   <path class="fil1" d="M5630 178c-4,1 -7,5 -5,7 2,-2 4,-4 5,-7z"/>
   <path class="fil1" d="M5783 147c-3,2 -8,2 -8,8 4,-2 7,-4 8,-8z"/>
   <path class="fil1" d="M5674 199c-4,2 -2,4 -4,9 1,-1 2,-2 4,-2 -3,-4 4,-6 0,-7z"/>
   <path class="fil1" d="M5764 181c1,2 6,-3 10,-3 0,-4 -6,1 -10,3z"/>
   <path class="fil1" d="M5735 205c-2,3 -5,5 -6,9 4,-2 7,-6 11,-7 1,-4 -6,2 -5,-2z"/>
   <path class="fil1" d="M5597 242c-2,-4 -5,4 -7,5 2,4 5,-4 7,-5z"/>
   <path class="fil1" d="M5602 258c4,0 3,-5 7,-5 0,-2 -2,-4 -4,-3 0,4 -5,5 -3,8z"/>
   <path class="fil1" d="M5531 276c-4,2 -7,4 -8,9 3,-3 6,-5 8,-9z"/>
   <path class="fil1" d="M5781 213c-3,0 -3,3 -6,3 -1,4 2,4 5,2 1,-1 1,-3 1,-5z"/>
   <path class="fil1" d="M5749 222c-4,1 -5,3 -7,5 0,2 8,-1 7,-5z"/>
   <path class="fil1" d="M5765 229c-1,0 -2,0 -2,1 -8,4 -12,13 -19,17 -2,5 2,5 2,8 4,-2 0,-4 3,-7 4,-1 4,2 6,-1 -2,-3 3,-7 3,-11 4,0 5,-2 8,-3 2,-4 -4,0 -1,-4z"/>
   <path class="fil1" d="M5563 293c2,-2 -1,4 -2,5 1,4 2,-3 5,-3 2,-4 -1,-3 -1,-5 -3,1 -5,3 -8,4 0,4 4,1 6,-1z"/>
   <path class="fil1" d="M5860 218c-4,1 -9,1 -9,6 3,-2 7,-3 9,-6z"/>
   <path class="fil1" d="M5864 220c-1,-3 -6,2 -6,5 5,1 3,-4 6,-5z"/>
   <path class="fil1" d="M5850 227c-1,3 1,4 1,6 2,-1 2,-3 4,-3 0,-3 -3,-3 -5,-3z"/>
   <path class="fil1" d="M5555 303c-2,-3 -6,6 -10,7 1,5 8,-4 10,-7z"/>
   <path class="fil1" d="M5908 230c-3,2 -5,7 -6,14 2,-4 6,-8 6,-14z"/>
   <path class="fil1" d="M5525 331c1,2 7,0 8,-4 -2,-2 -8,0 -8,4z"/>
   <path class="fil1" d="M5791 261c-4,1 -11,11 -4,10 -1,-5 3,-6 4,-10z"/>
   <path class="fil1" d="M5709 286c-4,-2 -10,5 -11,11 3,-1 2,0 2,2 6,-2 4,-11 9,-13z"/>
   <path class="fil1" d="M5853 257c-5,1 -8,4 -10,8 3,-3 9,-3 10,-8z"/>
   <path class="fil1" d="M5510 345c-2,1 -3,2 -3,1 -2,7 -10,9 -12,17 6,-8 15,-6 15,-18z"/>
   <path class="fil1" d="M5757 294c-4,0 -3,5 -4,7 1,-1 2,-2 4,-2 -1,-1 -1,-3 0,-5z"/>
   <path class="fil1" d="M5493 364c0,-3 -2,2 -4,2 4,1 -3,3 -3,8 4,0 1,-6 6,-5 0,-2 0,-4 1,-5z"/>
   <path class="fil1" d="M5484 373c-6,5 -11,2 -12,8 6,-3 2,5 8,2 -4,-4 3,-6 4,-10z"/>
   <path class="fil1" d="M5776 318c-4,3 -8,9 -2,9 1,-5 3,-6 2,-9z"/>
   <path class="fil1" d="M5459 401c-5,1 -6,6 -9,9 -3,0 -3,-3 -2,-6 -6,4 -1,9 -8,16 3,0 2,-1 7,-2 1,-6 -2,1 -5,0 5,-6 14,-9 17,-17z"/>
   <path class="fil1" d="M5601 385c-4,2 -6,8 -5,11 3,-3 7,-7 5,-11z"/>
   <path class="fil1" d="M5683 367c-3,3 -1,0 -5,1 0,3 2,3 3,4 2,0 2,-3 2,-5z"/>
   <path class="fil1" d="M5611 435c-4,3 -7,6 -8,12 2,-4 10,-9 8,-12z"/>
   <path class="fil1" d="M5714 441c-3,1 -4,3 -6,4 -2,4 5,-2 4,2 2,-1 1,-4 2,-6z"/>
   <path class="fil1" d="M5778 426c-4,2 -6,6 -7,11 3,-3 9,-8 7,-11z"/>
   <path class="fil1" d="M5521 505c-1,0 -3,1 -4,1 0,1 1,2 -1,3 0,3 6,-1 5,-4z"/>
   <path class="fil1" d="M5708 471c-5,2 -6,7 -12,8 0,2 3,2 4,3 -1,3 -6,4 -3,7 2,-2 1,-6 5,-6 -2,-4 5,-6 6,-12z"/>
   <path class="fil1" d="M5519 531c-1,2 -3,2 -4,4 -1,4 4,3 6,1 2,-5 -4,0 -2,-5z"/>
   <path class="fil1" d="M5668 519c-3,-2 -13,8 -10,12 3,-5 5,-10 10,-12z"/>
   <path class="fil1" d="M5692 529c-4,1 -6,4 -6,9 2,-3 5,-5 6,-9z"/>
   <path class="fil1" d="M5625 552c-3,2 -7,4 -8,8 3,-2 7,-4 8,-8z"/>
   <path class="fil1" d="M5595 577c-3,1 -3,4 -5,5 0,2 2,0 4,0 0,-2 1,-3 1,-5z"/>
   <path class="fil1" d="M5586 591c-4,0 -4,4 -7,5 0,2 8,-1 7,-5z"/>
   <path class="fil1" d="M5413 644c0,1 1,1 1,1 0,1 -2,1 -3,2 -1,3 2,4 -1,6 -1,5 4,-3 3,1 2,-3 7,-13 0,-10z"/>
   <path class="fil1" d="M5409 656c-2,0 -2,2 -3,3 -1,1 -3,2 -3,0 -2,1 -2,4 -2,6l6 -2c0,-3 2,-4 2,-7z"/>
   <path class="fil1" d="M5383 666c-2,2 -3,4 -4,7 3,0 4,-3 4,-7z"/>
   <path class="fil1" d="M5540 629c-3,3 1,6 3,5 4,-4 -2,-3 -3,-5z"/>
   <path class="fil1" d="M5552 628c-4,4 -11,8 -9,14 3,-5 9,-6 9,-14z"/>
   <path class="fil1" d="M5536 635c-2,3 -5,5 -6,9 3,-2 5,-5 8,-7 0,-1 -2,0 -2,-2z"/>
   <path class="fil1" d="M5515 641c-5,8 -8,8 1,8 2,-5 0,-6 -1,-8z"/>
   <path class="fil1" d="M5363 692c-4,1 -6,4 -7,8 3,-3 7,-4 7,-8z"/>
   <path class="fil1" d="M5325 728c-4,10 -12,15 -12,23 5,-6 10,-12 13,-20 2,0 1,2 1,4 7,-4 3,-8 -2,-7z"/>
   <path class="fil1" d="M5478 694c-5,3 3,6 -1,7 3,3 4,-7 1,-7z"/>
   <path class="fil1" d="M5476 700c-2,2 -4,4 -4,9 2,-2 4,-5 4,-9z"/>
   <path class="fil1" d="M5296 770c-1,0 -3,1 -4,1 -1,2 1,2 0,5 1,-2 4,-3 4,-6z"/>
   <path class="fil1" d="M5417 743c0,2 3,1 1,6 4,-4 4,-12 -1,-6z"/>
   <path class="fil1" d="M5367 898c-6,2 -5,8 -3,10 2,-2 2,-6 3,-10z"/>
   <path class="fil1" d="M5297 980c-5,2 0,6 -5,8 -4,0 1,-4 0,-6 -3,2 -4,6 -3,10 2,-2 3,-3 5,-2 -1,6 -7,6 -7,12 1,-2 2,-4 6,-4 1,-7 6,-10 9,-12 -2,-1 -7,1 -5,-6z"/>
   <path class="fil1" d="M5273 1013c-2,0 -3,1 -5,1 -1,5 -2,5 -1,8 4,-1 3,-10 5,-4 3,-1 1,-4 1,-5z"/>
   <path class="fil1" d="M5260 1023c1,1 1,5 0,9l4 -1c0,-2 0,-3 1,-3 -2,-2 -2,-1 0,-5 -2,1 -3,-1 -5,0z"/>
   <path class="fil1" d="M5247 1035c0,4 -4,5 -4,10 4,-3 4,-9 10,-10 -1,-3 -2,0 -6,0z"/>
   <path class="fil1" d="M5242 1052c0,-3 0,-5 -3,-4 -1,2 -2,3 -2,5 1,0 3,0 5,-1z"/>
   <path class="fil1" d="M5238 1054c-2,0 -2,-1 -4,0 -1,2 1,3 -1,4 0,1 3,0 5,-1l0 -3z"/>
   <path class="fil1" d="M5238 1062c0,-1 -9,3 -8,7 3,-2 7,-4 8,-7z"/>
   <path class="fil1" d="M5195 1106c0,4 -2,5 -2,8 3,0 3,-4 6,-4 0,-3 0,-6 -4,-4z"/>
   <path class="fil1" d="M5176 1134c-3,1 -5,3 -5,6l5 -1 0 -5z"/>
   <path class="fil1" d="M5163 1149c-3,3 -6,6 -9,9 -1,4 7,-3 6,1 2,-2 0,-2 0,-4 1,-2 4,-2 3,-6z"/>
   <path class="fil1" d="M5160 1165c-2,1 -1,5 -4,6 3,2 5,0 8,-3 0,-3 -4,0 -4,-3z"/>
   <path class="fil1" d="M5138 1178c-1,7 -8,10 -12,15 1,6 9,-3 13,-3 -3,-3 -4,-2 0,-9 5,-2 6,0 9,-4 -3,-3 -5,-2 -10,1z"/>
   <path class="fil1" d="M5144 1184c-4,3 -5,8 -9,11 2,1 10,-5 9,-11z"/>
   <path class="fil1" d="M5133 1204c-2,1 -2,3 -5,3 0,4 5,1 4,5 2,-1 3,-3 3,-6 -4,2 -3,3 -2,-2z"/>
   <path class="fil1" d="M5115 1229c-2,1 -3,2 -5,3 2,1 2,4 5,2 -2,-1 0,-1 0,-5z"/>
   <path class="fil1" d="M4896 1522c-4,3 -6,9 -7,15 4,-4 8,-6 11,-10 -1,-3 -3,-3 -4,-5z"/>
   <path class="fil1" d="M4852 1617c-4,0 -3,4 -5,6 1,2 6,-3 5,-6z"/>
   <path class="fil1" d="M4792 1708c-2,-1 -7,7 -6,11 3,-3 4,-7 6,-11z"/>
   <path class="fil1" d="M4765 1753c-1,2 -2,6 -3,9 -1,1 -2,4 -3,6 0,2 -1,4 0,5 1,-2 2,-5 3,-7l1 -2 1 -1c0,-1 0,-1 1,-2 1,-3 1,-6 0,-8z"/>
   <path class="fil1" d="M4686 1904c-4,5 -6,12 -10,17 1,3 9,-8 10,-17z"/>
   <path class="fil1" d="M4594 2055c0,1 0,2 0,3 -1,2 -2,5 -2,6 1,0 2,0 3,0 1,-2 2,-5 2,-8 -1,1 -1,-3 -3,-1z"/>
   <path class="fil1" d="M4495 1657c0,-3 -5,1 -4,-3 -3,5 2,4 4,3z"/>
   <path class="fil1" d="M4490 1656c1,-3 0,-3 -2,-2 0,2 0,2 2,2z"/>
   <path class="fil1" d="M4434 2055c0,1 -1,2 0,5 -5,-6 -6,-8 -13,-12 5,7 10,13 16,16 -3,-4 -1,-5 -3,-9z"/>
   <path class="fil1" d="M4414 2018c-1,2 -5,1 -3,6 3,3 5,-1 3,-6z"/>
   <path class="fil1" d="M4416 2040c1,0 -1,-4 -1,-6 -3,-1 -4,0 -5,1 1,3 5,1 6,5z"/>
   <path class="fil1" d="M4238 1719c-1,-4 -4,-5 -6,-6 0,2 1,4 3,5 1,-1 2,0 3,1z"/>
   <path class="fil1" d="M4223 1707c0,-3 -5,-5 -6,-5 2,4 4,6 6,5z"/>
   <path class="fil1" d="M4220 1687c-2,-9 -7,-17 -12,-26 -2,3 -4,-2 -7,-5 5,12 12,18 19,31z"/>
   <path class="fil1" d="M4205 1658c1,-4 -4,-7 -6,-11 0,5 2,8 6,11z"/>
   <path class="fil1" d="M4197 1643c-1,-4 -1,-8 -4,-12 -2,2 0,10 4,12z"/>
   <path class="fil1" d="M4198 1631c-2,-5 -2,-8 -2,-11 -4,-2 -5,-4 -7,0 5,-1 5,8 9,11z"/>
   <path class="fil1" d="M4159 1637c3,0 -1,-6 -4,-8 -1,2 1,4 1,6 1,2 3,0 3,2z"/>
   <path class="fil1" d="M4164 1582c1,1 1,0 1,-1 1,-1 1,-1 1,-2 -4,-2 -6,-13 -12,-18 0,2 -1,2 -2,2 4,4 6,9 10,13 -1,6 -3,-2 -6,-1 -1,3 6,4 4,7 2,1 3,-6 4,0z"/>
   <path class="fil1" d="M4150 1620c-2,-7 -5,-13 -11,-18 3,6 7,12 11,18z"/>
   <path class="fil1" d="M4151 1556c-1,-3 3,-4 1,-9 -2,3 -4,2 -7,-2 0,4 3,8 6,11z"/>
   <path class="fil1" d="M4144 1551c-1,-5 -5,-9 -8,-13 1,7 4,7 8,13z"/>
   <path class="fil1" d="M4125 1506c-1,-1 -1,3 -3,2 3,7 12,11 11,19 7,-3 -7,-14 -8,-21z"/>
   <path class="fil1" d="M4131 1530c-1,-8 -8,-13 -13,-20 1,8 8,14 13,20z"/>
   <path class="fil1" d="M4114 1518c4,-1 -3,-8 -5,-10 0,4 5,6 5,10z"/>
   <path class="fil1" d="M4117 1512c-2,-6 -2,-12 -9,-16 5,4 3,12 9,16z"/>
   <path class="fil1" d="M4110 1481c-1,7 -7,1 -7,-3 2,-4 4,1 7,3 2,-3 -4,-4 -2,-8 -7,0 -19,-11 -24,-16 -4,2 10,12 13,12 -4,2 2,8 -3,6 7,6 15,11 25,19 0,-5 -4,-9 -9,-13z"/>
   <path class="fil1" d="M4092 1457c1,0 1,-3 2,-4 -2,-3 -5,-5 -6,-8 -1,0 -2,2 -4,0 1,3 1,5 1,7 3,2 6,-2 7,5z"/>
   <path class="fil1" d="M4092 1443c-1,-3 -6,-10 -6,-4 3,4 4,2 6,4z"/>
   <path class="fil1" d="M4082 1439c4,1 -2,-4 0,-7 -3,0 -2,2 -5,-2 -1,4 4,6 5,9z"/>
   <path class="fil1" d="M5926 7c2,0 -1,4 4,3 0,-3 2,-3 3,-6 -8,6 -5,-13 -7,1 -3,3 -7,7 -11,10 -3,3 -7,6 -11,8 -1,6 -3,6 -6,5 0,2 2,1 2,2 -2,4 -3,-1 -7,2 2,3 0,4 0,12 3,-2 4,-7 6,-11 5,0 5,-4 7,-7 10,0 15,-10 20,-11 1,-5 -8,0 -9,2 1,-6 8,-5 9,-10z"/>
   <path class="fil1" d="M5841 56c-5,3 -9,7 -12,12 4,-2 3,1 6,0 -3,-5 4,-7 6,-12z"/>
   <path class="fil1" d="M5822 75c-2,2 -2,4 2,3 -1,2 -3,2 -4,2 -2,5 0,5 -1,8 -4,4 -10,8 -12,15 -11,1 -12,11 -18,15 -4,-4 6,-10 4,-14 -7,10 -15,12 -21,26 -4,0 -7,0 -8,7 -4,0 -6,-4 -3,-8 -3,0 -2,3 -4,3 3,1 0,7 4,5 -7,3 -9,13 -15,18 5,-10 7,-17 9,-18 -6,-2 -10,13 -14,19 -2,-2 -7,4 -9,7 0,1 2,0 2,2 -1,1 -2,2 -2,3 -1,-1 -1,-3 -3,-2 -6,7 -10,16 -16,23 -1,0 -1,-1 -2,-1 5,-8 6,-12 11,-20 -8,3 -11,11 -17,15 0,4 3,-1 5,-1 0,3 -2,4 -3,6 -4,2 -5,-3 -8,1 -1,2 1,2 0,4 1,0 2,-1 2,-2 3,-1 6,3 5,-2 7,-2 3,5 0,8 2,-6 -6,3 -6,-3 -3,2 -1,7 -4,9 -4,0 0,-7 2,-9 1,-4 -4,-1 -4,-4 -4,1 -4,7 -8,8 -2,-2 1,-5 0,-9 -5,0 -4,7 -9,8 0,3 4,-3 7,-2 -2,2 -4,5 -7,7 5,-2 4,1 6,4 -1,1 -2,2 -2,3 -4,3 0,-4 -4,-1 0,6 -20,23 -22,18 0,4 -4,5 -2,7 -5,3 -4,-1 -8,0 4,-4 6,-10 11,-13 -5,1 -13,10 -17,16 -3,0 -1,-3 -5,-1 -1,4 -3,10 -10,12 2,3 -1,6 3,7 -4,0 -3,6 -9,8 5,1 -5,8 -2,11 -7,4 0,-7 -5,-4 -1,4 -3,7 -6,9 -1,-1 -1,-3 -2,-4 6,-10 15,-16 18,-25 -3,0 -2,5 -6,4 -4,16 -23,18 -27,33 -15,6 -26,30 -36,29 -3,3 -6,6 -10,9 3,5 -5,8 -8,13 -1,0 0,-2 -3,-1 2,3 -3,8 -5,6 -5,12 -17,16 -23,27 4,-1 1,4 0,6 -2,1 1,-5 -1,-6 -9,6 -13,16 -19,24 -4,-4 -12,5 -11,9 -4,0 -4,3 -7,3 2,10 -20,19 -24,33 -12,2 -14,24 -25,24 3,-2 4,-5 6,-8 -4,0 -7,12 -14,17 -3,2 -14,8 -11,12 -1,2 -5,1 -7,3 -3,7 -9,11 -12,19 -8,5 -20,20 -30,31 -125,134 -244,275 -355,424 -14,18 -28,37 -42,56l-40 57c-14,19 -27,37 -41,57 -13,20 -26,39 -39,59 -51,79 -99,159 -146,240 -3,2 -3,-2 -3,-4 18,-21 26,-50 44,-71 -1,-3 0,-5 1,-9 2,0 0,2 0,4 4,-2 2,-9 8,-11 0,-4 -4,-1 -4,-5 12,-6 20,-23 26,-39 8,-10 16,-19 20,-32 1,0 2,0 2,1 7,-19 27,-39 30,-53 3,-2 2,1 4,-2 0,-2 -2,0 -3,0 18,-18 21,-40 41,-58 -2,-5 8,-13 12,-18 6,-9 6,-17 12,-19 3,-9 8,-17 16,-22 2,-4 -4,1 -2,-4 -1,-2 6,-4 5,-2 1,-7 7,-9 8,-16 3,-1 3,1 3,2 1,-8 8,-13 11,-21 4,3 1,0 6,-3 -1,-1 -1,-4 1,-7 1,1 2,1 4,0 -1,-8 11,-12 13,-24 2,-1 3,0 3,1 7,-11 26,-34 26,-39 3,-6 11,-8 11,-16 6,-3 14,-11 13,-15 14,-16 25,-32 37,-48 12,-16 24,-32 38,-48 1,-2 0,-2 0,-3 3,-2 4,-3 9,-6 10,-21 36,-40 48,-65 2,-1 2,0 4,-1 6,-8 11,-17 19,-24 -2,-1 -8,-3 -3,-12 4,0 3,3 8,-1 3,0 0,8 -3,7 0,5 8,-2 5,-4 13,-7 16,-23 29,-30 -2,-6 5,-12 12,-14 1,-2 -1,-2 -2,-2 10,-8 16,-19 26,-26 0,-2 -2,-2 -2,-4 13,-12 25,-34 39,-40 0,-1 -2,0 -3,0 14,-15 25,-31 41,-43 6,-13 23,-29 35,-42 2,-4 -3,-1 -1,-6 1,-1 1,-2 3,-3 3,9 11,-8 16,-11 -1,-4 -3,3 -6,3 -3,0 2,-5 2,-7 12,1 17,-14 27,-20 2,-4 -3,-1 -1,-5 0,-2 2,-2 2,-4 2,0 1,3 1,5 3,-1 5,-4 6,-8 -1,-1 -5,1 -3,-3 -3,1 -2,4 -6,4 1,-4 6,-4 6,-10 5,0 6,-4 9,-6 3,2 -5,5 -5,9 8,-2 -1,3 -1,6 10,-4 6,-7 15,-13 0,-2 -4,1 -5,-1 1,-1 2,-1 3,-2 0,-2 -2,-2 -4,0 1,-7 6,-10 7,-17 3,-1 4,-3 6,0 3,-4 2,-11 6,-13 3,-1 0,4 1,6 3,-2 3,-6 1,-7 0,-4 6,-3 7,-7 1,0 0,4 4,2 -1,-8 10,-21 13,-18 3,-3 8,-5 8,-12 8,0 9,-11 15,-10 -2,-10 16,-12 18,-23 7,-6 12,-14 19,-19 4,-1 -3,4 2,2 5,-16 22,-20 29,-34 -3,1 -3,2 -6,3 -1,0 0,-3 -2,-2 5,-5 12,-7 17,-12 -1,-2 -3,1 -4,1 -3,0 4,-3 2,-7 2,1 3,1 5,-1 -2,-10 14,-11 16,-21 4,-2 5,-1 4,3 3,0 3,-4 6,-5 0,-2 -2,0 -4,0 0,-4 2,-6 4,-8 2,-1 2,1 1,4 3,-7 10,-11 15,-17 2,0 0,3 4,1 -2,-8 17,-22 20,-30 4,1 9,-6 7,1 3,-3 2,-5 1,-7 3,-3 9,1 10,-6 -3,0 -2,3 -5,4 1,-2 0,-2 -1,-2 8,-8 18,-14 21,-26 3,3 3,2 8,2 1,-4 -4,-2 -6,-2 0,-8 10,-6 10,-14 7,-3 2,6 7,5 0,-5 -3,-5 -4,-8 1,-5 5,-1 6,-4 1,0 0,3 0,5 3,-2 6,-8 3,-8 8,-2 5,-5 13,-6 2,-7 4,-7 10,-11 -1,-2 -5,0 -3,-5l-6 1c-2,3 2,4 -4,5 -1,2 0,2 2,2 -5,5 -18,21 -20,14 -3,0 -2,4 -3,6 -4,1 -4,-3 -2,-6 -2,1 -9,9 -4,8 -2,4 -8,5 -8,12 -3,0 1,-6 -1,-6 -5,1 -9,13 -11,6 -3,1 -1,5 1,4 -3,3 -6,6 -10,7 0,2 2,2 2,4 -1,2 -4,3 -5,6 -1,-1 -1,-2 -2,-3 -4,9 -10,15 -18,22 -3,0 2,-3 1,-6 -3,1 -3,6 -8,6 2,-4 5,-8 10,-9 -2,-6 11,-10 13,-18 -11,10 -19,20 -28,28 0,4 3,-2 5,-1 -2,8 -9,1 -11,9 2,-1 4,-3 6,-4 0,5 -5,4 -4,9 -3,1 -2,-2 -2,-4 -1,2 -2,4 -4,4 2,5 -13,17 -19,22 -4,0 4,-2 3,-5 -9,11 -19,23 -30,32 -2,0 -1,-3 -1,-5 -5,2 -4,7 -2,9 -4,5 -3,-3 -9,1 -3,5 6,-1 5,2 -7,7 -10,17 -19,20 1,6 -3,7 -6,13 -4,2 -3,-1 -6,0 -2,7 -7,12 -12,17 -3,-1 2,-6 4,-7 -6,1 -10,9 -11,15 -4,2 -2,-3 -6,-1 0,-4 5,-6 3,-8 -10,10 -14,18 -20,30 -5,3 0,-6 -5,-3 -7,9 -14,18 -25,24 0,7 -6,8 -9,10 0,2 3,0 2,4 -9,3 -16,23 -22,20 -8,11 -24,22 -27,33 -8,2 -9,10 -18,12 0,6 -5,7 -5,14 -4,2 -3,-1 -6,0 -17,20 -32,40 -52,57 1,1 0,4 3,1 -16,14 -31,29 -42,47 -2,5 -9,6 -12,10 0,1 2,0 2,2 -5,4 -12,9 -16,18 -2,1 -5,2 -7,3 -12,19 -28,35 -44,50 0,1 1,1 1,3 -27,27 -49,60 -75,88 0,8 -20,26 -31,39 -5,7 -8,15 -15,18l0 5c-7,0 -8,12 -16,15 -8,18 -29,35 -40,55l-4 2c-14,26 -36,44 -49,70 -11,7 -13,22 -24,29 -1,9 -10,11 -11,20 -15,14 -26,32 -37,50 -28,37 -51,79 -78,116l0 6c-1,2 -3,1 -3,-1 -12,22 -22,37 -33,59l-5 2c-2,4 3,4 -3,9 -1,0 1,-2 1,-4 -3,2 -5,7 -3,8 -49,76 -92,154 -133,232 -20,39 -41,78 -61,118l-7 15 -1 1c0,1 -1,2 -1,2l0 0 0 1c0,1 -1,3 -1,4 -1,3 -2,6 -3,9l1 2c-1,0 -1,3 -1,6 -1,2 -1,5 -3,3 0,2 1,9 0,3 0,2 0,5 0,5 -1,0 -1,0 -1,-1 0,1 0,3 0,4 -1,1 -1,0 -2,6 -1,0 -3,5 -4,10 -1,2 -1,3 -1,4 -1,0 -1,0 -1,1 0,0 0,0 0,0 -1,0 -1,0 -2,-1 0,0 -1,0 -1,0 0,-1 0,-2 -1,-2 0,-2 0,-4 0,-7l-1 5c0,-8 -1,-8 -2,-2 1,-4 1,-3 1,-7 -2,9 -1,2 -1,-1 -2,6 -2,2 -3,-1 0,-2 1,-4 1,-6 0,-1 -2,8 -1,2 -1,1 -1,2 -1,3 -1,2 0,-3 -1,1 0,-1 0,-3 1,-4 -1,2 -3,4 -3,3 1,-6 1,-2 2,-5 -2,3 -4,2 -6,3l1 -6c2,-3 -1,2 -1,4 -3,3 -3,1 -5,2 2,-4 0,-4 2,-6 1,-2 -3,4 0,-2 -3,1 -2,2 -2,4 -3,2 -1,-4 -5,-1 1,-2 2,-2 2,-2 1,-2 -1,0 1,-3 -3,4 -2,0 -4,2 1,-4 -2,-5 -4,-6 -3,-1 -5,-2 -3,-7 -5,3 -6,-1 -8,-2 4,-2 2,2 5,2 1,-2 0,-2 2,-3 2,1 6,0 7,0 -6,5 2,4 3,4 1,-5 -2,-7 -8,-7 1,-1 2,0 3,-1 -1,0 -1,-1 -3,-2l0 0c0,0 -1,-1 -1,-1 -1,-1 -1,-1 -2,-2 -1,-1 -3,-1 -4,-1 -3,-3 1,-3 1,-6 -9,-10 -12,-17 -22,-28 -7,-15 -13,-30 -26,-43 -3,-10 -12,-23 -19,-27 -6,-21 -36,-47 -38,-76 -5,9 -11,-13 -17,-9 -2,-6 -12,-8 -9,-15 -17,-19 -26,-40 -29,-63 -3,-2 -6,-4 -8,-2 -2,-3 -2,-6 -1,-10 -4,-2 -4,-6 -6,-9 -4,0 -4,-3 -9,-4 0,3 3,4 3,6 -10,-11 -19,-33 -20,-51 -5,0 -9,-6 -11,-13 -14,-8 -27,-22 -37,-37l2 -7c-4,3 -7,-8 -11,-12 0,0 1,-1 2,0 -8,-14 -14,-27 -25,-36 -8,-15 -18,-34 -31,-43 -4,-11 -19,-27 -26,-34 -11,-12 -20,-23 -31,-30 1,4 -1,4 -2,7 -3,-2 -2,-5 -6,-7 1,5 5,7 3,10 7,4 4,15 9,14 3,2 0,6 0,9 3,6 7,12 9,18 -5,-4 -7,-7 -15,-13 12,23 26,55 47,79 1,2 2,5 1,8 2,0 3,-1 3,-2 2,3 4,6 6,9 -4,6 10,14 17,18 -1,4 -5,0 -8,-2 2,3 2,8 -1,8 -5,-3 -3,-5 -8,-7 -1,3 6,3 3,7 3,3 3,0 6,2 1,2 2,3 1,4 -2,1 -6,-2 -8,-1 0,-1 0,-2 -1,-3 4,1 -2,-7 -4,-10 0,-3 1,-2 2,-4 -6,-8 -13,-7 -18,-15 2,-2 7,5 11,7 -2,-4 -6,-11 -8,-8 -2,-10 -12,-18 -19,-27 0,7 8,11 12,17 -7,-1 -14,-13 -14,-21 -6,-6 -13,-13 -13,-21 -19,-21 -27,-45 -44,-66 -1,6 4,10 1,17 4,6 6,11 5,18 2,2 2,0 4,1 -3,6 3,9 3,14 -1,3 -3,1 -6,-1 0,6 5,10 6,16 0,4 -3,-1 -4,2 2,9 8,11 13,20 -2,4 -9,-5 -13,-8 1,1 1,3 0,6 1,0 1,-1 2,-2 3,3 1,7 6,7 -1,2 -2,2 -2,4 5,6 7,13 9,20 3,2 4,1 5,-2 3,1 4,3 5,5 -2,3 -4,5 -6,7 -4,-8 -14,-18 -21,-18 -6,-12 -13,-24 -16,-37 -4,5 -6,-5 -8,-10 2,-2 2,6 5,7 0,-7 -8,-10 -11,-15 1,-5 5,1 2,-4 -4,0 -10,-14 -12,-21 -7,-5 -8,-12 -13,-20 -5,1 2,8 3,11 -6,-6 -18,-21 -19,-35 -9,-6 -15,-37 -28,-35 -1,-8 -8,-9 -9,-15 3,-1 4,3 6,1 -11,-14 -24,-27 -34,-25 0,5 1,12 -3,12 1,9 7,23 0,28 5,3 7,11 11,10 0,-2 -1,-2 -3,-4 2,-2 2,0 5,2 -2,4 -1,7 0,9 0,4 -2,3 -5,1 1,3 3,5 4,4 -2,8 8,21 15,30 -1,13 12,21 21,31 0,1 0,2 0,3 -9,-2 -14,-13 -21,-17 -1,2 1,4 0,7 14,14 16,25 28,40 -1,1 -2,1 -2,2 -3,-6 -10,-14 -15,-15 -1,3 3,5 2,8 2,-2 4,0 4,4 1,-1 3,-2 5,-1 1,6 9,18 13,14 3,1 -3,2 0,5 -1,1 -3,-3 -5,0 2,4 8,5 9,3 2,3 -2,4 -2,7 4,5 4,0 8,3 2,2 -1,4 -2,3 0,5 4,2 5,3 1,1 1,6 -1,7 -4,-2 -4,-4 -6,-6 0,7 6,8 8,6 4,7 7,13 14,16 0,6 -4,1 -4,4 -3,-4 -5,-7 -8,-11 -1,5 -4,6 -8,3 0,3 2,4 4,4 -3,2 2,5 -1,7 5,4 7,10 11,17 -2,2 -6,-4 -4,-7 -1,-1 -1,0 -1,1l-2 -2c-1,5 3,8 6,12 -2,3 -5,1 -7,4 4,2 2,2 6,5 0,4 -2,4 -2,7 2,2 3,1 4,2 0,3 -2,1 -2,5 4,6 6,12 8,18 -2,3 -2,-2 -6,-4 -1,4 4,6 3,10 1,-1 3,1 3,-1 4,16 16,29 20,44 2,1 2,-2 2,-3 3,2 5,4 6,6 -8,8 11,18 13,28 -11,1 -12,-11 -20,-18 0,5 7,9 3,12l6 5c0,3 -1,2 -2,4 -1,-3 -5,-4 -5,-8 -2,3 -2,-2 -5,-1 -4,6 10,7 7,13 5,4 11,7 16,10 0,4 -3,3 -5,2 -2,4 1,7 2,10 2,-1 4,-1 7,2 0,-2 -3,-3 -1,-6 3,3 4,6 4,10l9 7c-3,3 -3,-1 -1,6 0,6 -4,-1 -4,4 7,-1 7,5 15,10 1,6 4,12 4,19 8,2 12,7 18,13 0,5 -5,-2 -6,0 4,9 17,15 23,17 -2,-10 -12,-10 -16,-15 0,-2 1,-3 3,-2 0,-3 -6,-6 -6,-3 2,-10 -20,-21 -18,-35 10,4 17,19 21,30 11,3 16,17 23,30 -6,-2 -10,-3 -15,-2 4,1 4,4 8,6 -4,12 8,11 6,22 7,8 5,6 10,14 0,-3 3,-1 3,-2 2,2 3,5 6,7 0,5 -4,0 -5,-3 -3,2 6,12 8,11 2,4 6,7 4,12 2,6 11,9 11,16 -2,5 -8,0 -13,-1 3,7 10,8 13,18 -1,5 -2,3 0,7 4,2 -2,-7 2,-4 -1,-3 -2,-6 -4,-9 3,-3 3,-2 0,-7 1,-1 2,0 3,1 3,2 -1,7 1,9 1,0 3,2 4,0 2,3 2,7 4,10 -1,2 -3,1 -4,-1 -1,-2 1,-1 1,-4 -2,0 -5,0 -5,3 15,10 21,24 31,35 0,2 0,4 -2,3 3,0 11,9 14,16 -3,2 -9,-8 -11,-7 2,-4 -1,-5 -1,0 8,10 14,19 17,28 -3,5 -7,-9 -11,-7 1,3 0,5 4,6 2,14 22,34 29,47 0,4 -6,-6 -6,0 5,0 8,5 11,9 -1,-3 -1,-7 -3,-9 0,-1 1,-1 1,-2 5,5 3,13 10,17 0,3 -2,2 -2,4 1,1 2,2 3,3 0,1 0,2 1,2l0 1 1 1c2,4 3,8 5,12 0,3 -1,4 -2,3 0,4 5,7 4,12 2,3 2,1 2,-1 13,30 23,51 37,79 0,4 -2,3 -5,0 2,5 5,9 7,14 5,7 1,-6 5,0 2,9 6,16 11,22 1,6 -2,3 0,10 2,1 2,-4 4,-3 1,13 3,8 9,19 1,6 -2,3 0,10 1,1 2,0 1,-4 6,8 13,35 10,40 8,13 -3,-17 4,-12 2,6 0,6 2,15 5,5 7,17 12,14 3,9 7,10 5,17l6 0c-1,-8 -2,2 -3,-5 5,-4 13,12 21,15 -2,2 -2,6 -6,3 3,11 8,1 14,6 1,9 6,8 10,10 3,9 8,12 12,15 0,5 -4,-3 -6,-2 1,4 -4,2 -3,6 5,0 12,6 17,5 0,2 2,3 5,8 0,6 -9,-9 -5,2 -3,1 -4,-6 -7,-5 1,6 9,7 7,11 4,0 6,4 11,6 -2,6 4,5 7,12 6,1 10,7 15,10 0,-3 -3,-9 -5,-10 1,-4 7,6 10,9 0,3 -2,3 -4,2 1,3 3,6 3,9 1,-6 4,3 9,3 -1,-5 -4,-3 -5,-8 1,2 2,2 4,3 0,1 1,2 2,2 0,1 0,1 1,2 0,0 0,0 0,1 0,0 0,0 1,0 0,1 0,1 -1,1 -1,0 -2,-1 -2,-1 0,1 1,2 2,3 1,0 1,1 0,1 5,3 2,-4 7,0 -1,-2 -4,-5 1,-7 7,0 0,2 5,4 4,-1 3,-3 2,-4 2,-1 5,1 7,-1 7,4 -5,6 0,9 1,-1 2,-2 3,-2 1,-1 1,-3 1,-3 2,-5 4,1 6,-5 2,0 2,2 3,3 3,-4 6,-4 9,-4 2,-7 7,-8 11,-9 2,1 -4,5 0,5 2,-3 3,-5 5,-6 3,-1 5,-1 8,-3 3,-3 -2,-3 1,-6 4,-4 1,5 5,5 2,-1 3,-2 3,-5 5,4 9,1 13,-3 5,-3 10,-8 15,-6 1,-4 2,-7 4,-8 1,-4 3,-8 5,-16 2,-2 3,0 6,-7 2,4 -4,12 -5,19 6,-6 9,-18 11,-28 5,-6 3,0 7,-1 3,-7 6,-8 6,-16 1,-1 3,-2 4,-2 -3,-3 6,-22 11,-22 0,-11 4,-13 8,-20 3,-9 0,0 -2,0 1,-6 3,-8 5,-12 5,-2 3,2 3,7 3,-6 7,-12 13,-14 0,3 -1,5 -2,6 2,2 9,-15 13,-21 -11,15 -11,7 -21,21 6,-22 12,-12 17,-25 -1,-3 -9,5 -10,0 4,-1 9,-12 13,-11 1,-8 -1,-11 -1,-18 2,7 6,-1 11,-5 3,-1 -2,11 3,6 0,-5 1,-6 -1,-9 2,-4 7,-7 2,-7 3,-5 7,-8 10,-11 2,2 -8,15 -3,16 1,-5 6,-19 11,-29 5,-10 10,-17 11,-11 2,-4 3,-12 7,-14 -1,-12 12,-25 13,-40 6,0 9,-11 10,-6 4,-4 -1,-6 2,-14l6 -8c1,-2 1,-2 2,-3l1 -3c2,-3 4,-7 4,-12 4,1 7,-5 5,-7 5,-1 4,-5 8,-6 -3,-1 -4,1 -7,0 2,-4 6,-6 9,-7 3,-4 -2,-4 5,-9 0,-1 -2,0 -2,-3 -2,5 -5,8 -9,11 4,-7 9,-13 12,-20 1,0 1,1 3,0 -1,4 -7,8 -4,11 5,-4 3,-11 10,-15 0,-2 0,-4 1,-5 0,-1 -1,-2 -3,-1 0,-5 5,-8 6,-13 3,-2 3,1 5,-1 1,-5 -4,0 -1,-5 4,-2 2,4 5,-1 0,-3 -3,-1 -3,-3 16,-9 19,-31 29,-40 3,-1 1,4 3,4 4,-5 2,-13 10,-15 -1,-2 -1,-2 -3,-1 -1,-4 1,-4 1,-7 2,-2 2,0 2,2 3,-1 3,-5 6,-7 -1,-2 -2,0 -4,0 -1,-3 2,-4 2,-6 2,0 2,2 4,1 0,-2 0,-4 0,-5 3,-2 2,1 6,-2 4,-9 9,-19 14,-27l-3 1c1,-2 0,-6 3,-8 3,-1 3,1 3,3 4,-4 7,-16 8,-19 3,0 5,-1 5,-6 -5,3 -2,-1 -2,-4 -4,9 -9,10 -14,20 1,2 1,-1 3,-1 1,3 -4,3 -3,6 -4,1 -4,2 -9,4 9,-9 13,-26 22,-31 0,-1 -1,-1 -1,-3 1,-4 2,3 4,0 -1,-9 5,-12 10,-17 -2,-4 0,-8 3,-11 2,3 2,8 6,7 -1,3 -5,7 -3,9 2,-4 3,-4 6,-4 -1,-3 1,-5 -1,-8 1,-3 5,-5 5,-9 6,-1 9,-11 11,-18 4,2 6,-1 6,-8 2,0 3,1 2,3 6,-5 6,-13 11,-18 0,-3 -4,0 -3,-3 -1,-3 5,-1 3,-5 2,-1 3,0 4,1 2,-3 -4,-2 1,-6 2,-1 4,-1 4,1 2,-6 10,-12 8,-16 2,-1 2,2 5,-1 -3,-2 3,-5 3,-5 3,-6 0,-11 8,-16 -3,-3 4,-10 6,-14 1,1 1,3 3,1 -1,-5 5,-7 4,-14 -1,-3 -6,2 -6,5 -1,1 1,-6 2,-7 -2,-4 -3,4 -5,4 -1,1 -1,-2 -1,-4 1,-2 7,-3 6,-9 3,-1 6,-3 6,0 4,-2 3,-7 8,-8 -1,-2 -3,-2 -1,-6 3,5 1,14 -1,22 3,-3 6,-5 9,-7 -1,-2 -3,-4 1,-6 0,-1 -2,-1 -2,-3 1,-5 3,-1 7,-4 -5,-2 4,-18 11,-17 -3,-2 2,-3 1,-8 -4,2 -3,7 -7,8 -2,-2 5,-7 7,-10 -1,-1 -1,-3 -1,-6 1,-3 3,-1 3,1 3,-2 -1,-5 -4,-3 0,2 -3,3 -2,7 -2,0 -3,-1 -5,-1 1,-5 8,-7 9,-12 2,1 2,11 6,5 -3,-1 0,-2 1,-6 3,2 -1,4 5,-1 -2,-2 -2,-3 -1,-8 6,2 4,-7 10,-8 -7,11 -9,21 -20,31 7,-1 -3,9 2,11 2,-1 3,-3 5,-3 -3,-4 5,-10 8,-10 -5,1 0,-6 -5,-5 2,-2 1,-6 5,-7 3,0 -5,7 2,3 1,4 -4,2 -3,6 2,-1 3,1 5,-1 0,-7 3,-7 7,-6 -5,-4 6,-12 9,-18 -1,-4 -2,-1 -5,0 1,-8 11,-15 9,-21 4,-2 3,3 5,3 -3,4 -6,9 -10,13 0,3 2,4 4,4 0,-2 1,-3 3,-4 -1,-1 -1,-2 -2,-2 6,-2 12,-17 11,-22 4,6 7,-5 13,-4 0,-2 1,-3 2,-4 -2,-4 -3,3 -6,3 -3,0 -1,-6 -1,-13 6,-2 0,6 3,8 5,-3 2,-4 4,-9 -3,0 -3,-2 -5,-3 1,-2 5,-2 4,-6 -5,2 -3,9 -10,10 0,6 -2,12 -5,15 -2,1 2,-4 3,-5 -1,-4 -6,2 -3,3 -6,-4 -2,-10 4,-18 7,-7 15,-16 19,-24 -2,1 -4,2 -4,0 -3,1 -1,6 -5,6 -2,-1 1,-9 6,-10 -4,0 -2,-10 3,-11 1,0 -2,7 -4,8 4,1 1,4 4,7 4,-2 4,-1 8,-4 -3,7 -8,9 -10,20 6,-2 3,2 8,-2 -1,-1 -6,1 -4,-6 5,-6 10,-10 13,-17 -2,1 -4,1 -4,-1 -3,2 -5,5 -7,7 -1,-1 1,-5 1,-7 2,-2 2,0 2,1 5,-3 -2,-3 3,-8 2,1 2,4 4,5 1,-10 13,-18 14,-28 2,0 2,3 6,1 1,-4 5,-6 4,-12 -3,2 -4,2 -6,1 2,-5 6,-8 7,-14 4,0 4,8 -2,10 3,-1 3,4 6,3 -1,-6 3,-9 6,-18 -4,0 -2,4 -5,5 -3,-2 3,-5 3,-10 2,-1 2,1 5,0 -5,-7 7,-10 8,-16 6,0 -2,8 0,11 1,-1 1,-2 2,-3 4,-3 0,4 4,1 1,-5 6,-8 2,-8 0,-5 6,-5 7,-9 2,1 2,4 -1,5 4,3 6,-13 11,-10l1 -7c-2,1 -3,0 -4,0 1,-4 3,-3 6,-3 -1,-9 7,-11 16,-18 1,-8 14,-15 18,-25 -3,-2 -4,3 -6,5 -2,-4 5,-11 8,-15 4,0 -4,5 -1,6 4,-2 6,-3 7,-2 1,-3 1,-9 1,-14 2,-4 5,-1 8,-3 2,-1 4,-10 7,-7 2,-9 8,-14 14,-20 4,-3 0,6 5,3 2,-6 -4,-1 -3,-6 2,-6 6,-2 10,-3 1,-4 4,-5 5,-7 1,2 3,2 7,0 -1,-1 -1,-3 1,-4 0,-3 -3,3 -5,2 0,-4 3,-5 5,-7 0,-3 -4,2 -5,3 -1,-1 -2,-3 -3,-4 3,-3 5,-2 3,-6 6,-2 1,2 3,4 4,-2 2,-4 1,-6 2,-5 7,-8 9,-12 2,1 2,5 3,7 4,-3 11,-3 13,-9 5,-1 8,0 14,-7 -3,1 -5,4 -7,2 1,-4 3,-6 6,-8 0,-3 -3,-1 -2,-4 -2,3 -10,7 -8,10 -2,-1 -4,-1 -3,-5 2,-3 4,1 4,-6 4,-3 0,4 5,1 -4,-2 0,-6 4,-8 0,-4 -3,-2 -5,1 1,-2 2,-3 2,-6 2,1 7,-3 7,0 2,-2 3,-10 6,-6 3,-2 -2,-8 3,-11 2,0 1,3 1,5 4,-4 13,-9 11,-13 0,-2 6,-7 4,-2 6,-7 10,-20 6,-27 2,-3 4,-4 5,-7 4,-1 1,6 6,3 -1,6 -2,5 -5,7 -2,5 -1,8 3,6 1,-1 -1,0 -2,0 1,-4 2,-7 6,-8 3,-1 -2,2 -1,5 4,0 2,-6 7,-6 -4,-6 7,-12 14,-15 1,-5 -1,-10 -6,-5 4,1 0,4 -3,6 -2,0 0,-2 1,-3 -3,0 -8,10 -13,13 8,-17 27,-34 39,-52 1,0 0,2 0,3 3,-1 5,-3 5,-7 4,2 3,-3 7,-5 4,-1 -2,8 3,4 -1,-6 3,-6 9,-11 -1,-5 0,-9 7,-11 0,-4 4,-6 4,-11 14,-2 22,-22 38,-34 -2,-2 -1,-7 3,-6 2,-4 0,-4 -1,-6 1,-1 1,-2 3,-3 1,2 3,2 2,7 6,-3 -3,-5 5,-8 -3,-4 0,-5 4,-9 2,-1 2,2 1,5 4,-10 17,-20 15,-31 2,-5 4,-3 7,-6 3,0 1,5 5,4 1,-4 -1,-5 -3,-5 4,-4 2,-4 4,-9 5,0 4,9 0,12 3,-1 3,1 1,1 8,-3 18,-7 20,-21 4,-2 -1,6 4,4 -1,-6 10,-11 14,-17 0,-2 -1,-2 -1,-4 2,0 1,2 4,1 2,-3 0,-1 0,-5 2,0 1,2 3,2 5,-2 6,-7 3,-8 2,-1 2,-1 3,-2 1,-1 0,2 0,3 7,-7 21,-16 22,-24 9,-5 3,-6 9,-9 0,-8 2,-10 5,-17 -3,0 -4,3 -6,4 0,-4 5,-4 5,-8 2,0 1,2 1,4 5,-5 11,-8 16,-13 1,0 1,2 1,3 2,-2 5,-4 5,-7 -3,-8 19,-17 22,-28 -9,8 -17,17 -27,25 2,-4 6,-6 9,-9 -2,-4 -5,3 -7,4 1,-3 1,-5 1,-8 3,0 3,1 5,0 5,-8 0,-12 9,-18 2,1 -3,7 -3,11 1,0 4,0 4,2 1,-2 -2,-12 6,-16 2,0 3,1 2,4 5,-1 1,-10 7,-14 4,-2 1,5 5,2 1,-1 0,-1 -1,-1 -1,-1 4,-4 0,-6 2,-1 7,-5 4,-7 2,-1 2,-4 5,-5 2,2 -1,9 2,9 1,-2 3,-6 4,-9 3,-2 2,1 6,-1 3,-5 8,-9 13,-14 2,-1 -3,4 -2,6 7,-4 2,-12 11,-15 1,-2 0,-6 2,-6 1,-4 -2,2 -4,1 0,-1 0,-3 0,-4 6,-3 9,-10 15,-12 3,2 -3,9 -7,9 -1,3 -2,6 -4,8 2,-3 11,-5 12,-13 4,-1 2,4 6,2 -1,-6 8,-15 15,-23 3,0 -2,3 -1,5 3,-3 3,0 7,-2 2,-5 7,-8 9,-14 9,-3 5,-7 9,-19 -2,4 -4,9 -8,11 -1,3 0,2 2,2 -2,3 -4,5 -6,7 -3,1 1,-4 2,-5 -3,0 -15,3 -15,10 -5,0 -13,9 -16,16 -3,0 -4,-2 -4,3 -11,5 -19,13 -25,22 -4,-3 -9,8 -10,3 0,2 -2,5 -5,9 2,-1 3,-3 5,-3 -1,2 -2,4 -3,6 -1,0 -2,-1 -2,-3 -3,0 -4,4 -7,4 -1,2 0,2 0,4 -3,0 -6,1 -5,5 -2,0 -5,0 -5,2 -3,2 1,-6 -3,-3 1,7 -13,20 -19,20 -3,2 1,3 0,5 -1,1 -2,2 -2,3 -4,2 -3,-1 -7,1 -2,8 -14,16 -21,23 0,3 -2,5 -3,8 6,-2 1,-5 6,-8 0,3 0,2 4,3 -1,8 -7,11 -11,10 0,-4 6,-2 6,-7 -3,4 -8,3 -7,-2 -4,6 -10,9 -15,14 -1,-4 -1,-2 -5,1 1,-4 4,-6 9,-6 0,-3 -4,0 -3,-3 -2,3 -6,5 -9,8 0,3 4,2 7,1 -3,5 -9,8 -10,15 1,2 3,1 4,4 -4,5 -3,-3 -7,0 -2,0 0,-1 0,-3 -7,1 -14,14 -23,16 -2,9 -10,14 -16,20 -5,0 2,-6 -1,-9 -6,3 -2,9 -8,5 1,4 2,5 5,5 -3,7 -9,12 -15,17 2,5 -4,9 -8,13 -1,0 0,-2 0,-3 0,-2 3,-2 5,-3 0,-2 0,-2 -1,-2l0 -3c-4,2 -3,8 -9,8 0,-4 3,-4 4,-7 -1,-3 -5,4 -7,5 0,-9 -6,6 -12,8 2,1 4,5 1,9 0,-5 -4,-1 -7,-3 0,1 -1,2 -2,3 4,1 -1,6 1,9 -3,2 -11,7 -13,14 -4,1 -3,-2 -4,-4 -5,3 -9,8 -12,9 -1,1 -1,3 -1,5l5 -2c-1,-5 5,-5 8,-8 -1,6 -8,7 -9,12 -6,-6 -10,7 -19,11 3,-2 3,-6 7,-7 -2,-3 -7,5 -9,7 0,2 2,3 2,6 -3,5 -4,-1 -7,0 0,2 -1,3 -3,4 4,3 0,7 -6,8 5,0 0,2 -1,9 -6,2 3,-9 -5,-5 3,5 -1,7 0,11 -6,2 1,-7 -1,-7 -4,4 -4,5 -4,10 -5,2 1,-4 -2,-5 -9,4 -7,10 -12,19 -2,1 -3,-1 -7,1 0,5 -6,7 -7,12 -2,-1 -2,-4 -4,-4 0,-2 1,-3 2,-4 3,-2 2,2 3,2 3,-5 3,-8 9,-13 -4,3 -9,4 -11,9 -4,1 4,-5 -1,-4 5,-2 7,-7 11,-10 0,-1 -2,0 -2,-2 2,-4 3,1 6,-2 0,-2 1,-3 3,-4 -6,-6 8,-7 8,-15 4,-2 2,4 6,0 0,-5 -5,-3 -5,-8 -3,1 -3,5 -7,6 0,1 2,0 4,0 -1,4 -4,6 -7,8 -2,-1 1,-3 0,-6 2,-3 6,-6 7,-11 4,-1 2,4 6,0 -3,-12 17,-25 26,-36 2,1 0,6 3,5 -10,10 -20,18 -28,28 1,3 5,-2 5,-5 3,-1 6,-5 5,1 2,-3 4,-6 6,-9 2,0 1,5 6,2 -1,-5 1,-5 4,-9 4,-2 2,3 6,1 6,-5 10,-14 11,-19 1,1 3,0 3,1 0,4 -3,-2 -3,4 7,-3 9,-10 15,-13l1 -9c3,-1 5,1 9,-1 -1,-7 -5,-1 -8,-2 1,-4 8,-2 8,-8 5,-2 1,7 8,4 0,-1 -2,-1 -3,-1 4,-8 11,-12 17,-18 1,-5 -6,-2 -8,1 1,-4 -1,-11 4,-12 3,0 -2,4 0,5 4,0 2,-5 6,-4 -1,-4 -3,-3 0,-8 2,-1 3,0 3,3 6,-2 -1,-8 5,-10 2,0 -1,7 3,5 2,-4 0,-4 1,-7 0,-2 1,-3 2,-3 2,1 -2,5 2,7 3,-5 4,-2 9,-4 9,-6 13,-17 18,-22 -1,8 13,-11 20,-16 2,3 -7,7 -7,13 8,-4 8,-15 15,-16 0,-2 -2,-1 -3,-1 -1,-4 3,-4 3,-8 11,-1 13,-14 20,-14 4,-10 11,-11 13,-21 -3,3 -2,1 -5,2 5,-12 12,-9 17,-6 0,-4 -4,-4 -4,-7 3,-3 6,-7 10,-9 3,0 -2,5 -2,8 -2,-1 12,-11 14,-14 2,-1 4,1 2,2 2,2 3,-3 4,-5 0,-1 -2,0 -3,0 5,-7 20,-11 25,-23l6 -2c1,-2 4,-2 4,-5 11,-2 12,-14 23,-16 4,-10 13,-15 22,-20 -2,6 -1,8 -3,12 7,-8 11,-19 17,-20 -4,-4 -1,-12 -8,-14 5,-3 9,-6 14,-10 -5,-3 -15,14 -20,8 0,-3 4,-2 6,-3 -3,-3 6,-7 6,-12 1,2 2,4 8,1 -3,-2 -1,-5 0,-10 4,0 11,-2 8,-5 4,-2 4,1 7,-2 4,0 1,1 1,5 3,-3 7,-6 9,-11 4,-1 0,6 5,5 0,-2 -3,-7 2,-8 -1,-2 0,-5 -4,-3 3,-5 3,-4 2,-9 -1,-3 5,0 5,-4 1,-5 -4,0 -6,1 2,-3 5,-4 6,-7 3,0 -1,6 4,4 -1,-3 4,-6 4,-3 0,-9 10,-15 19,-19 0,-1 0,-4 -1,-6 -4,3 -3,1 -7,2 -1,3 1,2 3,2 -5,7 -14,11 -21,16 3,-7 12,-9 15,-16 -3,3 -6,5 -10,7 2,-5 7,-5 7,-12 2,0 1,4 5,2 0,-2 2,-3 2,-5 3,-1 2,1 2,3 2,0 2,-4 5,-4 -2,-3 4,-7 2,-10 6,-3 3,3 8,2 1,-5 10,-10 12,-9 3,-7 6,-4 9,-10 3,0 -2,3 -1,5 6,-2 8,-9 14,-12 0,-3 -1,-4 -3,-6 3,-2 7,-8 5,-11 4,-3 0,4 4,1 3,-2 3,-6 7,-6 2,-5 -1,-4 1,-7 4,-1 0,7 2,8 0,4 -6,1 -5,5 3,2 8,-5 10,-9 3,-2 2,1 5,-1 2,-5 8,-15 11,-14 2,-1 1,-3 0,-3 2,-3 4,-6 9,-7 0,-3 3,-4 3,-8 -2,5 -10,4 -10,10 -5,0 -3,-4 -9,0 1,-8 5,-6 7,-7 0,-5 -5,2 -7,-1 0,3 -1,5 -4,5 -1,4 -4,5 -2,6 4,-1 5,-5 6,-1 0,3 -5,2 -5,5 -3,-1 -1,-5 -6,-1 5,2 -3,3 -6,6 -1,0 -3,-4 0,-5 -2,3 -10,4 -12,9 -7,-1 -9,7 -15,5 -3,5 0,7 -4,11 -2,0 -1,-3 0,-5 -7,1 -8,6 -12,8 0,3 1,2 3,0 0,5 -5,6 -3,8 0,0 -4,-2 -5,2 -3,-1 -1,-2 0,-5 -5,2 -7,9 -14,10 4,6 -8,3 -7,11 -2,-4 -4,2 -7,0 2,-3 4,-6 9,-7 -1,-6 9,-11 16,-13 -2,-2 -3,-4 -1,-9 -2,13 -28,16 -26,32 -5,5 -9,11 -15,14 0,3 1,2 3,0 0,3 -1,6 -1,8 -1,2 -3,3 -5,4 0,-4 4,-5 4,-10 -4,1 -6,4 -9,5l-1 5c-1,2 -3,3 -4,4 -3,0 -2,-3 -2,-6 -6,5 2,8 -5,12 0,2 1,3 3,2 -1,2 -2,4 -4,6 -1,-8 -13,4 -19,6 3,-6 16,-15 12,-18 5,-5 11,-8 14,-13 -2,-4 -6,5 -9,6 2,-5 3,-4 3,-10 6,3 5,-4 11,-1 1,-6 -2,-6 -5,-6 2,-4 5,-1 7,-2 1,-3 3,-4 3,-8 4,-2 3,1 6,0 1,-6 1,-3 5,-5 2,-6 7,-8 9,-14 4,-2 1,3 4,3 -3,5 -12,10 -7,13 2,-2 2,-6 4,-8 0,0 1,0 3,0 1,-6 1,-7 6,-8 2,-6 -4,-3 -2,-9 1,-1 2,-2 2,-3 4,-1 3,2 4,4 4,0 4,-4 8,-4 1,-3 -1,-3 -2,-2 3,-6 12,-6 12,-16 10,-6 13,-15 23,-19 0,-5 5,-6 7,-9 -2,-3 -3,-2 -3,-6 -5,1 -5,2 -9,2 0,4 1,2 1,7 -3,4 -8,6 -8,12 -4,0 -1,-7 -2,-10 -3,1 -7,9 -9,5 -6,5 -7,13 -16,15 2,-5 6,-7 7,-11 -2,1 -4,4 -8,4 2,3 1,4 -3,3 -2,10 -13,10 -17,18 -4,2 -1,-3 -1,-5 -4,1 -4,5 -7,6 3,0 5,2 10,-1 1,1 2,2 2,4 -1,2 -4,3 -6,5 -1,0 0,-4 -4,-2 -1,3 0,4 0,5 0,2 -2,2 -3,3 -4,0 1,-2 -1,-4 1,-4 6,-3 6,-8 -25,23 -47,48 -73,69 3,6 -7,12 -11,10 0,4 5,3 6,7 -4,6 -7,2 -10,8 -1,0 -1,-2 0,-4 -5,4 -6,10 -11,13 -1,-10 -11,6 -21,9 -2,4 2,2 4,1 -6,7 -4,3 -10,8 0,2 3,-1 3,2 -1,2 -3,3 -5,3 0,2 1,3 0,7 -2,5 -5,-1 -6,6 -2,0 -3,-2 -2,-5 -10,9 -10,6 -19,19 -2,0 -2,-1 -2,-3 -4,10 -13,15 -18,24 -1,0 -2,0 -2,-2 -3,3 -4,8 -4,13 -4,1 -5,0 -3,-3 -8,11 -22,15 -25,30 -4,2 -2,-3 -6,-1 1,-3 4,-3 3,-6 -5,9 -11,21 -22,28 1,4 7,-5 6,3 -6,2 -11,4 -13,8 1,5 3,-3 6,-4 0,5 -4,7 -6,10 -2,-1 -3,-4 -4,-6 -6,9 -8,18 -18,26 -1,0 0,-3 -2,-2 -2,0 -3,2 -5,2 -1,5 1,4 -1,8 -1,-1 -3,-1 -6,1 -2,5 -7,8 -10,12 -3,1 0,-4 2,-4 -6,0 -8,11 -7,16 -6,3 -4,-2 -3,-6 -5,6 -6,15 -12,20 -3,1 -1,-6 1,-5 -3,-1 -6,2 -10,6 1,-2 4,-6 0,-4 1,-2 4,-2 3,-6 -4,1 -5,6 -8,7 2,1 3,5 -1,7 0,2 1,-1 3,-1 -2,4 -4,8 -4,14 -5,2 -1,-5 -6,-3 0,4 -4,9 -1,11 -7,6 -15,13 -18,18 1,2 3,2 1,6 -5,0 -2,-6 -9,0 0,-4 3,-5 5,-7 -3,-2 -6,8 -10,10 1,1 3,1 2,3 -3,2 -4,4 -9,4 -1,4 2,3 0,7 -2,3 -8,1 -8,9 -3,1 -2,-2 -6,0 0,-3 3,-4 5,-6 -16,8 -28,32 -42,46 -1,-1 -2,-4 -1,-7 -3,2 -4,7 -8,8 -1,4 1,4 2,4 -6,8 -22,17 -21,30 -5,1 0,-4 -2,-5 -4,5 -5,6 -9,10 0,1 2,1 2,3 -4,6 -18,10 -16,17 -2,1 -3,-1 -7,1 -1,3 -1,8 -5,8 2,8 -14,13 -15,23 -1,-2 -5,1 -5,-1 -2,5 -3,11 -10,12 -1,3 -1,5 -3,7 0,-1 -1,-1 -3,-1 1,3 -3,7 -3,4 0,4 -4,8 -9,11 3,1 1,4 -1,7 -2,0 -1,-2 -1,-4 -4,4 -7,9 -11,12 0,-5 4,-3 2,-8 -2,2 -5,4 -6,7 -2,0 -1,-3 -1,-4 3,-4 9,-4 8,-9 -2,4 -5,-1 -7,3 -3,-1 -1,-4 1,-7 2,-1 2,2 3,4 4,-2 2,-6 2,-9 3,-2 4,-6 8,-7 -6,6 0,8 -5,12 1,3 5,-5 3,2 -1,5 -2,-3 -3,1 -2,7 0,2 4,2 -1,1 -1,2 -3,3 5,-2 11,-16 18,-21 -4,0 2,-3 0,-6 -3,4 -6,9 -8,14 -8,-4 5,-16 7,-22 7,-4 5,4 11,3 -4,-4 5,-5 4,-10 -1,3 -8,9 -9,4 7,-2 1,-6 9,-11 5,-2 3,4 7,2l1 -6c-2,0 -4,1 -4,-1 4,-10 12,-16 17,-26 -5,1 -5,5 -8,6 2,-6 8,-15 14,-14 -3,2 -4,5 -4,9 1,3 4,-3 5,0 3,-6 3,-14 11,-13 -1,-4 2,-5 4,-7 -1,0 0,-3 -2,-3 7,-4 12,-18 19,-18 3,-4 5,-8 8,-12 1,1 1,2 2,3 3,-2 -1,-4 0,-6 5,-2 5,1 6,4 4,-3 6,-8 11,-7 -1,-3 -6,-1 -5,-7 -6,4 3,6 -5,10 -3,-1 -3,-3 -1,-7 4,-7 15,-9 19,-17 5,1 -1,5 -2,8 4,-1 5,-5 7,-9 -1,0 -2,-1 -4,0 1,-3 4,-2 2,-4 6,-3 5,-13 13,-13 -1,-3 4,-10 7,-8 -2,-7 5,-15 11,-18 1,-2 0,-2 0,-4 5,-2 8,-9 11,-5 1,-3 1,-6 1,-10 7,-4 2,5 7,4 1,-6 4,-9 9,-12 -2,-2 0,-7 -1,-9 4,-1 0,8 6,5 -5,-4 4,-14 11,-17 2,-6 -1,-8 4,-11 1,1 1,6 4,1 3,0 2,4 1,8 1,0 1,-1 2,-2l2 0c1,-4 -2,-3 -1,-7 2,-6 6,-1 11,-5 1,-4 6,-5 7,-9 -5,1 -7,4 -9,9 -1,-1 -4,-1 -7,1 3,-4 1,-5 7,-7 2,-5 -4,0 -2,-5 6,-1 12,-9 18,-15 -1,-2 -6,4 -7,6 -5,-3 2,-10 7,-13 4,0 -5,6 -1,5 6,-2 1,-5 6,-8 0,10 10,-13 19,-14 0,-4 4,-11 5,-17 5,4 12,-12 12,-16 2,0 4,-1 4,0 -1,-2 4,-4 5,-10 6,1 5,-5 9,-12 2,0 2,3 6,1 6,-13 13,-16 21,-28 2,0 1,3 4,0 -4,-4 4,-7 8,-7 -4,-1 -2,-9 4,-12 3,1 -5,5 -1,7 2,-1 2,-3 5,-3 -1,-2 -4,-2 -1,-5 2,0 0,4 2,3 6,-4 6,-7 4,-8 3,-5 3,3 6,-2 -3,-1 -1,-6 2,-10 4,1 2,-2 7,-3 -2,-2 2,-6 5,-8 2,1 -1,3 2,4 -2,-5 13,-14 6,-17 4,-1 3,-9 7,-10 4,0 -1,4 -1,9 4,-3 5,-7 9,-9 -5,-7 7,-15 9,-19 2,2 -1,6 -2,9 -2,1 -2,-1 -2,-2 -4,2 0,4 -3,8 5,-5 6,-7 14,-7 2,-5 -3,-2 -3,-5 8,-1 21,-23 29,-29 0,-1 4,-9 0,-8 1,-6 9,-5 5,-9 4,-2 2,2 4,3 -1,2 -3,2 -5,3 0,4 5,1 1,7 4,-4 3,-6 6,-12 1,0 1,0 3,0 1,-4 -3,0 -4,-3 1,-3 5,-4 5,-8 -14,10 -25,22 -36,34 -5,2 -1,-4 -5,-2 -3,3 -1,3 -1,7 -5,1 -2,-6 -2,-11 7,-7 18,-10 23,-22 2,-2 6,-3 8,-6 -4,1 -3,0 2,-4 2,-3 -2,-2 -1,-4 9,-3 7,-7 12,-12 3,-1 2,2 6,0 -2,-2 -2,-6 3,-8 3,-2 -2,6 3,3 0,-3 1,-3 3,-4 -1,-1 -1,-2 -1,-5 8,-5 11,-8 19,-12 -3,-5 6,-4 6,-10 4,0 -2,4 -1,7 3,-3 5,-7 9,-9 1,-2 0,-6 2,-6 -3,-2 -2,-3 -1,-9 -5,7 -10,6 -13,13 -4,1 1,-3 -4,-2 -1,4 0,6 3,6 -1,3 -4,4 -4,7 -4,-3 -7,4 -8,7 -4,0 1,-5 -1,-8 -3,3 -3,4 -3,7 -1,0 -5,1 -10,5 2,1 0,5 0,9 -3,-1 -3,-4 -8,-2 -1,4 -4,4 -6,6 0,-2 -3,-1 -4,-2 -7,9 -16,17 -24,24 -2,8 -10,9 -13,16 -12,3 -15,23 -27,23 0,3 -2,4 -2,7 -4,0 -6,2 -9,3 2,-4 6,-5 4,-9 1,4 3,-1 6,-3 0,-4 -2,-1 -5,1 1,-6 6,-9 10,-12 2,-1 -2,5 -4,6 4,1 9,-10 13,-14 -4,0 -3,4 -7,5 8,-7 8,-12 13,-20 4,-1 -2,8 3,4 0,-1 1,-3 1,-5 8,-5 14,-15 17,-21 -2,7 4,-1 9,-5 -1,-2 0,-5 -3,-2 1,-9 7,-4 9,-12 3,-1 4,2 5,4 3,-2 3,-9 2,-9 1,-5 12,-7 9,-11 1,-2 7,-6 7,-3 1,-6 8,-15 17,-21 -3,6 -3,5 -3,11 3,-2 6,-3 10,-5 2,-3 -6,-1 -2,-3 -1,-4 -3,3 -4,5 -4,-3 2,-15 10,-15 5,-5 3,-17 11,-19 1,-2 1,-4 1,-5 4,-2 2,2 3,3 4,-3 3,-10 8,-11 4,0 -1,4 -1,7 7,-11 13,-21 22,-23 2,-3 5,-5 5,-10 -2,1 -4,1 -3,-2 5,0 10,-12 18,-15 0,3 -1,6 -3,7 3,0 11,-8 15,-12 1,-6 -3,2 -6,1 1,-4 5,-5 5,-10 -1,0 -2,-1 -1,-3 -4,1 -3,3 -5,1 0,-1 1,-2 2,-4 7,0 7,-2 14,-6 0,5 -7,4 -7,9 4,0 4,-3 8,-3 -4,0 2,-9 5,-12 1,0 0,2 0,3 4,1 4,-4 8,-4 0,-2 -4,0 -4,-1 3,-8 11,-11 15,-17 -3,-3 -4,4 -7,5 -1,0 -1,-1 -2,-1 4,-3 4,-6 7,-11 -3,-3 -6,2 -5,6 -5,2 0,-7 -4,-2 0,-4 5,-10 -1,-8zm-304 281l0 0c-1,5 -5,6 -8,9 1,-5 4,-7 8,-9zm-237 235l0 0c0,-5 6,-9 0,-8 2,-6 7,-10 12,-14 0,5 -1,4 0,9 -2,1 -4,1 -5,3 0,2 2,0 2,2 -4,2 -3,8 -9,8zm-1177 636l0 0c-3,-3 -5,-1 -4,-6 1,-1 5,2 4,6zm-67 32l0 0c-4,-5 -5,-6 -11,-10 1,-3 -1,-5 -4,-6 2,-5 1,-5 4,-9 -4,-4 -6,1 -8,3 -2,-9 5,-10 10,-7 -2,9 10,13 11,21 -2,4 -3,-4 -5,-1 3,3 5,8 3,9zm322 691l0 0c4,3 4,13 7,17 -4,-3 -6,-9 -7,-17zm252 64l0 0c2,1 8,-10 7,-3 -3,0 -8,15 -7,3zm180 -318l0 0c-2,2 -1,6 -6,6 0,-3 4,-9 6,-6zm901 -1183l0 0c3,-4 6,-7 11,-9 -3,3 -8,11 -11,9zm-93 37l0 0c-2,-2 12,-16 13,-11 -6,2 -6,10 -13,11zm261 -274l0 0c0,2 1,2 0,5 -2,0 -3,2 -5,2 1,-3 1,-7 5,-7zm-412 301l0 0c7,-8 10,-11 16,-17 -4,8 -9,13 -16,17zm138 -157l0 0c2,-3 7,-10 9,-8 -2,3 -7,10 -9,8zm75 -77l0 0c-1,0 -2,-7 2,-7 3,0 0,7 -2,7zm143 -233l0 0c2,-1 0,-2 1,-4 5,1 3,-7 8,-6 0,6 -7,11 -9,10zm-116 100l0 0c2,-3 2,-6 6,-7 -1,6 -5,6 -6,7zm-117 95l0 0c-1,-2 3,-7 8,-8 -1,5 -4,6 -8,8zm-21 23l0 0c1,-4 8,-10 11,-8 -5,2 -6,8 -11,8zm252 -65l0 0c-5,5 -8,12 -15,16 3,-7 11,-15 15,-16zm-350 104l0 0c-2,-3 4,-8 8,-10 0,6 -4,8 -8,10zm165 -44l0 0c2,-3 3,-7 7,-8 0,3 -5,11 -7,8zm194 -51l0 0c2,0 5,-7 6,-3 -2,2 -5,8 -6,3zm-4 7l0 0c-4,-1 -3,2 -6,4 0,-2 -4,0 -4,-1 4,-4 5,-1 6,-7l4 -1c0,2 1,2 0,5zm-20 9l0 0c2,-3 3,-8 7,-8 0,5 -3,7 -7,8zm-142 53l0 0c-1,3 -2,5 -3,6 1,-5 -6,-7 0,-11 4,1 -1,7 3,5zm121 -27l0 0c0,-2 1,-4 1,-5 1,-1 2,-1 3,-1 1,4 -2,4 -4,6zm74 -19l0 0c5,3 3,-3 7,-5 4,3 -9,13 -7,5zm-210 65l0 0c-7,3 -8,14 -15,12 3,4 -2,9 -6,11 6,-9 1,-11 5,-20 7,1 3,-4 8,-2 3,-5 8,-15 11,-14 0,0 -4,5 -1,4 1,-3 4,-6 8,-7 0,4 -4,5 -7,5 -1,4 -6,8 -3,11zm-139 31l0 0c-2,-3 2,-7 5,-9 2,2 -2,7 -5,9zm162 -42l0 0c-2,0 -3,1 -5,1 0,-3 1,-5 3,-6 -2,5 4,0 2,5zm157 -30l0 0c0,-5 7,-3 6,-8 4,-1 4,4 7,0 -1,9 -8,3 -13,8zm-70 19l0 0c0,-4 0,-9 5,-9 -2,3 -1,8 -5,9zm47 -14l0 0c5,0 2,12 -3,14 -2,-2 -2,-6 0,-8 2,3 4,-2 3,-6zm-210 78l0 0c3,3 4,-2 4,-6 2,-2 3,-2 4,-1 3,-8 12,-10 14,-18 4,-2 4,4 5,-3 4,-1 8,2 3,6 0,-2 0,-3 -2,-2 5,6 -5,13 -9,20l-6 2c-2,3 -2,9 -7,11 -2,-5 4,-13 8,-16 -1,0 0,-1 1,-3 -3,3 -7,3 -9,6 -1,7 -3,13 -9,15 6,-7 2,-7 3,-11zm159 -57l0 0c0,2 4,0 3,3 -4,-1 -2,4 -5,4 0,-5 -2,-5 -1,-10l4 -1c-1,1 -1,3 -1,4zm-360 101l0 0c-3,0 0,-7 4,-7 -1,3 0,8 -4,7zm67 -7l0 0c-1,-6 11,-10 7,-7 -2,2 -3,6 -7,7zm319 -85l0 0c0,-2 1,-3 1,-5 1,0 3,-1 3,0 -2,1 1,4 -4,5zm-38 20l0 0c0,-3 -1,-3 -3,-2l1 -6c2,-2 6,-4 9,-5 -3,4 -5,9 -7,13zm38 -17l0 0c0,3 2,3 3,5 -2,0 -2,4 -5,4 2,-10 -7,4 -8,-1 4,-2 8,-12 12,-9l-2 1zm-58 24l0 0c5,2 5,-5 9,-7 3,6 -7,13 -9,7zm-7 6l0 0c-3,2 -4,-3 -5,1 0,2 3,2 3,4 -2,1 -3,1 -5,1 0,-2 1,-4 -2,-3 1,-3 1,-6 4,-7 0,2 0,3 2,2 1,-4 -1,-3 0,-6 5,-2 2,5 3,8zm-33 9l0 0c1,-5 4,-8 10,-9 -2,4 -5,7 -10,9zm87 -27l0 0c-2,5 -9,6 -11,12 1,-6 3,-8 8,-12 0,1 1,1 3,0zm-186 59l0 0 1 -5c4,-1 6,-3 5,-7 2,0 3,-1 4,-1 -2,6 -7,9 -10,13zm166 -45l0 0c4,-2 5,-5 8,-6 0,4 -6,9 -8,6zm-326 94l0 0c2,-6 8,-8 11,-13 2,4 -7,10 -11,13zm356 -98l0 0c2,0 1,4 1,6 -1,2 -3,4 -6,6 -2,-1 -2,-3 -3,-5 0,7 -5,10 -7,14 -7,0 -9,3 -16,7 0,-5 10,-11 15,-16 -2,1 -3,0 -3,-1 4,-5 6,-5 6,-2 2,-4 11,-17 19,-16 -5,3 -2,4 -6,7zm-61 19l0 0c-2,-3 -2,-6 4,-9 -5,5 1,4 -4,9zm45 -14l0 0c-2,1 -4,4 -7,4 1,-4 7,-8 7,-4zm-190 55l0 0c-2,1 -3,2 -3,5l-7 1c-2,8 -5,7 -9,15 0,-2 -3,-1 -2,-4 5,-2 7,-6 9,-10 -3,0 -5,-2 -3,-7 2,-1 5,-4 8,-4 0,4 -4,5 -4,9 4,1 8,-6 11,-5zm-5 0l0 0c1,-4 4,-6 8,-7 -1,4 -5,5 -8,7zm172 -38l0 0c-4,3 0,-4 -4,-1 1,-4 3,-6 6,-7 1,1 0,6 -2,8zm-362 98l0 0c1,-3 2,-7 5,-7 0,4 -2,5 -5,7zm371 -99l0 0c-3,1 -3,-1 -5,0 0,-3 2,-5 5,-5l0 5zm-102 35l0 0c-2,1 -3,1 -4,0 2,-4 4,-9 10,-10 0,5 -6,5 -6,10zm85 -26l0 0c-6,3 -7,10 -13,12 5,-4 5,-12 11,-14 0,2 2,1 2,2zm-28 9l0 0 -1 5c-2,0 -5,1 -6,-1 4,0 3,-4 7,-4zm37 -7l0 0c0,2 7,-3 5,2 -3,4 -2,-2 -7,0 1,-2 1,-4 1,-6 2,0 6,-5 6,-2 -1,3 -4,4 -5,6zm-197 56l0 0c4,-3 0,-5 6,-8 0,4 -4,11 -6,8zm139 -29l0 0c2,-3 4,-7 7,-9 0,5 -4,7 -7,9zm-338 94l0 0c1,-2 1,-5 4,-6 2,2 0,6 -4,6zm306 -80l0 0c4,-2 5,-6 10,-7 -1,4 -8,9 -10,7zm-123 33l0 0c-3,4 -7,7 -11,10 1,-6 9,-16 11,-10zm197 -31l0 0c1,-5 -1,0 -3,0 -1,-4 4,-3 4,-6 -5,0 -6,3 -10,5 -1,-1 -7,-1 -3,-5 1,4 4,-2 6,-1 0,-6 7,-6 8,-11 5,0 7,-1 10,-5 1,-2 -3,0 -3,-1 9,-5 8,1 9,8 -3,1 -2,-1 -3,-1 -1,2 -4,1 -4,3 2,0 3,-1 4,0 -1,5 -4,5 -1,7 -2,1 -3,4 -6,4 0,-2 2,-4 0,-4 -2,3 -5,5 -8,7zm-38 7l0 0c2,2 -1,4 -3,7 -4,-1 -6,5 -10,8 0,-7 -3,3 -7,2 2,-5 7,-6 9,-10 3,-9 -4,-13 4,-18 -3,6 -2,17 7,11zm-363 102l0 0c-2,0 1,-6 -3,-4 -2,6 1,5 1,9 -2,0 -3,2 -5,2 -2,-6 0,-10 -1,-16 9,-2 10,-3 16,-8 -1,5 -3,12 -8,17zm187 -59l0 0c-1,-3 1,-6 5,-9 -2,4 -4,6 -5,9zm236 -63l0 0c0,-3 -4,0 -3,-3 3,-4 7,0 3,3zm-80 29l0 0 2 -10c1,0 1,-2 3,-2 3,1 -1,10 -5,12zm-163 40l0 0c-3,1 -4,3 -5,0 3,-1 2,-4 6,-4 -1,1 -1,2 -1,4zm90 -17l0 0c-7,2 -1,-7 2,-9 0,4 -3,5 -2,9zm121 -37l0 0c-1,2 -6,3 -5,-1 3,0 6,-1 5,1zm-212 61l0 0c0,0 0,-1 -1,-1 -1,3 -2,4 -3,5 0,-4 2,-7 6,-9 -1,2 -1,5 -2,5zm11 7l0 0c4,-1 3,-7 7,-8 0,4 -5,11 -7,8zm255 -64l0 0c-1,-4 -4,2 -1,3 -3,1 -4,-1 -5,-3 4,-3 2,-4 8,-8 0,3 0,5 -2,8zm-497 157l0 0c1,-4 4,-5 6,-7 0,4 -2,6 -6,7zm276 -75l0 0c1,-4 3,-5 6,-5 0,3 -3,4 -6,5zm-107 31l0 0c-4,2 -3,-5 1,-5 0,3 2,2 -1,5zm93 -20l0 0c-1,6 -9,13 -12,11 5,-1 5,-7 8,-11 1,3 2,-2 4,0zm-300 104l0 0c2,-4 5,-8 10,-10 -2,4 -6,12 -10,10zm463 -134l0 0c2,-1 8,-7 9,-4 -1,3 -8,6 -9,4zm-88 40l0 0c-4,0 -6,4 -10,5 1,-4 7,-5 6,-11 3,0 3,-3 6,-3 -2,6 -1,4 -2,9zm-172 52l0 0c-4,2 -7,1 -5,-4 2,-2 6,0 9,-5 0,5 -4,5 -4,9zm205 -38l0 0c1,-5 2,-9 5,-12 -1,5 -1,10 -5,12zm-107 25l0 0c0,-3 2,-5 5,-5 0,3 -2,5 -5,5zm40 -6l0 0c1,-4 3,-8 8,-9 -2,4 -5,6 -8,9zm-27 12l0 0c-6,3 -7,10 -11,13 -2,-6 4,-9 9,-16 0,-1 -1,-2 2,-3 0,2 1,3 0,6zm-97 36l0 0c1,-6 5,-10 9,-13 -1,6 -5,10 -9,13zm179 -45l0 0c1,-3 3,-5 5,-7 0,3 3,3 3,6 -4,3 -4,0 -8,1zm9 -14l0 0c4,1 5,-2 9,-4 -4,6 -3,16 -9,15 3,-6 1,-7 0,-11zm-14 11l0 0c3,0 6,-8 8,-5 -3,3 -5,7 -10,8 1,-3 0,-3 -3,-2 1,-4 3,-7 6,-9 0,2 -4,8 -1,8zm-79 29l0 0c3,-1 3,-5 7,-6 0,4 -6,8 -7,6zm9 -10l0 0c-1,4 4,0 3,4 -4,3 -7,-1 -3,-4zm-26 10l0 0c0,4 -2,5 -4,8 -4,0 -5,3 -7,5 2,-5 0,-3 1,-8 3,0 5,0 5,-5 3,-1 4,-1 5,0zm-186 62l0 0c0,-5 3,-7 1,-9l3 -1c0,-1 0,-2 1,-2 1,4 -1,9 -5,12zm-163 42l0 0c-3,1 -3,4 -6,3 0,-5 6,-7 6,-3zm441 -123l0 0c2,-3 5,-5 8,-6 1,4 -8,7 -8,6zm-246 79l0 0c2,-5 5,-8 9,-10 -2,4 -5,7 -9,10zm215 -51l0 0c2,-1 0,-2 1,-4 3,-3 6,-1 8,-7 -2,-2 -6,3 -6,-1 3,-3 5,-4 9,-4 -1,7 -7,17 -12,16zm-175 43l0 0c-4,3 -4,9 -10,10 1,-5 4,-7 5,-11 3,-1 5,-1 5,1zm100 -22l0 0c-1,1 -3,2 -6,2 -1,-4 7,-6 6,-2zm64 -10l0 0c0,-1 0,-2 -1,-3 2,-2 4,-3 7,-3 -1,3 -3,5 -6,6zm-79 25l0 0c2,-3 1,-8 5,-9 -1,4 -2,7 -5,9zm-29 16l0 0c0,-6 4,-4 3,-9 2,0 3,0 4,0 0,5 -3,8 -7,9zm17 -18l0 0c-5,2 -4,9 -10,9 0,-5 7,-11 10,-9zm75 -17l0 0c-1,-5 3,-5 7,-5 -1,3 -5,3 -7,5zm-75 28l0 0c0,-4 3,-5 5,-7 2,2 -1,7 -5,7zm-4 14l0 0c1,-6 3,-8 0,-11 3,-3 4,-1 6,-1 0,4 -2,6 -3,9 1,-1 3,-3 3,-1 -3,6 -7,6 -11,8 0,-2 -2,-2 -1,-5 4,-2 4,1 6,1zm-16 7l0 0c2,-7 7,-12 13,-17 4,5 -7,13 -13,17zm113 -37l0 0c2,-5 7,-7 11,-11 -3,5 -6,9 -11,11zm-37 10l0 0c-1,-1 -3,-4 1,-6 1,1 2,5 -1,6zm17 6l0 0c-5,3 0,-6 -3,-5 -3,2 -2,7 -6,7 2,-7 7,-10 11,-14 1,3 -4,7 -2,12zm-105 22l0 0c-1,8 -11,10 -12,5 4,-1 5,0 12,-5zm6 7l0 0c0,-2 1,-4 1,-7 1,0 3,-1 3,1 -3,0 0,7 -4,6zm52 -10l0 0c-3,1 -2,-2 -3,-4 2,-1 2,-2 4,-2 0,2 0,4 -1,6zm24 -3l0 0c-4,0 -5,-2 -5,-6 5,-2 7,3 5,6zm-67 14l0 0c0,5 -6,6 -8,5 2,-7 3,-3 8,-5zm55 0l0 0c-2,1 -3,2 -5,3 2,-5 5,-4 4,-10 4,2 4,-3 9,-5 -1,6 -7,7 -8,12zm-24 18l0 0c8,-2 11,-15 17,-14 -4,4 -12,20 -17,14zm4 -4l0 0c0,-3 -3,-1 -2,-5 2,-1 3,-2 5,-3 -2,5 1,5 -3,8zm-23 29l0 0c-4,1 -3,5 -7,5 1,-3 3,-6 5,-8 0,2 2,2 2,3zm-96 43l0 0c2,-3 7,-13 9,-7 -4,0 -7,9 -9,7zm-124 36l0 0c-4,3 -4,-5 0,-6 -1,3 2,2 0,6zm129 -36l0 0c0,-3 3,-4 5,-5 -1,3 3,6 0,7 -1,-2 -4,-1 -5,-2zm2 7l0 0c-5,3 -5,-4 -1,-6 1,1 3,1 1,6zm52 -12l0 0c-5,0 -3,6 -7,6 1,-6 5,-9 8,-14l-1 8zm-48 16l0 0 1 -6 3 -1c1,4 -2,5 -4,7zm-23 5l0 0c-1,7 -4,2 -9,6 2,-3 7,-8 9,-6zm-11 8l0 0 -5 2c0,-4 4,-10 6,-7 -3,1 -1,5 -1,5zm-122 40l0 0c2,-2 4,-3 7,-5 -9,13 -18,25 -30,35 -1,-7 7,-5 7,-11 -3,1 -4,3 -5,0 3,-4 4,0 9,-3 0,-6 7,-6 7,-12 -2,2 -3,5 -7,5 -1,-3 2,-4 2,-7 3,-2 3,4 5,-1 1,-3 -4,1 -2,-4 1,-2 2,-3 5,-4 1,2 0,7 2,7zm141 -41l0 0c-6,1 -7,7 -12,9 0,-4 -5,-3 -1,-8 4,-3 3,1 5,2 2,-3 4,-5 5,-9 4,-2 3,2 3,6zm46 -10l0 0c1,-5 1,-9 5,-10 -2,3 -1,8 -5,10zm-93 24l0 0 0 -6c2,0 3,0 4,-1 0,4 -1,6 -4,7zm-9 36l0 0c0,1 -1,3 -3,3 2,-8 11,-6 14,-8 1,-2 1,-4 1,-6 9,-4 13,-11 18,-18 -2,-3 -2,-7 -1,-10 4,3 1,-4 6,-5 -2,7 -3,13 -3,19 -9,1 -11,15 -16,22 -1,-1 2,-7 -1,-6 -1,5 -4,7 -5,12 2,-1 3,-3 4,-1 -4,1 -7,12 -10,9 4,-3 5,-13 0,-11 3,4 -8,13 -10,11 3,-3 12,-10 6,-11zm3 8l0 0c1,0 -1,5 -2,8 -1,-3 -4,3 -7,3 2,-5 5,-8 9,-11zm98 -69l0 0c-3,4 -7,8 -11,12 2,-5 7,-14 11,-12zm-46 17l0 0c2,-1 1,-4 5,-4 1,4 -5,7 -5,4zm-15 14l0 0c0,-3 5,-10 7,-7 -3,2 -4,6 -7,7zm44 -12l0 0c-1,-1 1,-6 5,-7 0,4 -2,6 -5,7zm-201 71l0 0c-2,-3 3,-6 -1,-8 5,-3 4,6 1,8zm-7 9l0 0c-3,-2 2,-5 1,-10 1,-1 2,-1 4,-1 -1,4 -1,10 -5,11zm145 -46l0 0c1,-2 4,-10 7,-7 -3,2 -4,6 -7,7zm29 -1l0 0c0,-3 1,-6 4,-6 0,3 -1,5 -4,6zm-63 30l0 0c-2,2 -3,5 -5,7 0,-5 -2,-7 2,-10 0,3 4,0 3,3zm-19 13l0 0c-2,1 -4,2 -5,3 0,-1 0,-2 1,-3 -1,1 -2,1 -1,-1 6,-2 -2,-3 -1,-6 3,-1 3,-4 7,-4 -2,5 0,7 -1,11zm18 -1l0 0c-2,0 -5,1 -5,0 4,-3 4,-10 11,-11 -2,6 -6,6 -6,11zm-359 118l0 0c-3,2 -3,-2 -2,-6 1,0 2,-1 3,-2 2,1 1,5 -1,8zm220 -73l0 0c-2,3 -4,6 -8,7 0,-4 -4,-8 2,-11 0,5 1,8 6,4zm104 -26l0 0c2,-3 5,-2 6,-1 2,-8 12,-17 18,-16 -8,5 -13,14 -15,20 -1,-2 -3,-2 -6,-2 2,3 2,3 -1,7 -2,1 -2,-1 -3,-2 1,5 -1,3 -3,6 4,0 0,5 -3,6 -2,-1 2,-4 1,-9 5,-5 7,-4 6,-9zm96 -23l0 0c-6,2 -3,10 -5,13 -6,1 -1,-4 -2,-8 3,0 2,-4 3,-6 2,-2 4,-1 4,1zm-85 30l0 0c-4,2 -7,6 -11,9 1,-3 3,-6 5,-9 -1,2 6,-6 6,0zm52 -8l0 0c-1,-1 -1,-7 3,-8 -1,3 0,7 -3,8zm15 4l0 0c-1,-3 2,-4 2,-8 -3,1 -4,4 -5,1 3,-2 8,-10 10,-7 -1,5 -1,11 -7,14zm-89 19l0 0c-4,-1 -4,8 -6,4 1,-2 5,-9 6,-4zm33 0l0 0c2,-4 5,-8 8,-11 1,1 -5,13 -8,11zm45 -14l0 0c0,-2 0,-3 -1,-4 3,-1 7,-7 9,-5 -4,2 -4,8 -8,9zm-105 50l0 0c2,-6 9,-15 14,-22 -2,0 -5,1 -4,-2 5,3 4,-3 10,-6 -1,5 -3,8 2,9 -10,1 -14,15 -22,21zm-328 98l0 0c3,-2 2,-7 6,-8 -1,3 -4,11 -6,8zm214 -70l0 0c-3,0 -4,2 -4,5 -6,1 -3,-11 3,-14 -2,6 -1,6 1,9zm204 -62l0 0c3,-6 8,-10 12,-15 0,1 0,2 0,4 -5,2 -7,8 -12,11zm-119 33l0 0c3,-3 8,-12 12,-10 -4,3 -8,13 -12,10zm17 1l0 0c-6,2 -7,9 -13,12 2,-7 11,-15 14,-16 -2,1 -1,3 -1,4zm98 -27l0 0c0,-2 -4,0 -4,-1 3,-2 3,-6 7,-6 0,3 -1,6 -3,7zm-15 14l0 0c0,-4 3,-7 6,-9 -2,3 -2,8 -6,9zm-77 20l0 0c-1,7 -4,5 -10,7 1,-3 1,-4 0,-5 1,0 1,-1 2,-1 2,4 4,2 8,-1zm91 -21l0 0c-4,3 -5,10 -12,12 3,-5 -1,-6 2,-10 4,-4 4,4 6,0 0,-2 -3,-1 -1,-6 3,-1 4,2 5,4zm-23 13l0 0c-1,-1 -1,-3 -1,-6 5,0 4,-4 8,-5 0,1 0,2 0,3 -5,1 -3,4 -7,8zm-92 35l0 0c4,-4 7,-19 11,-13 -6,2 -4,11 -11,13zm-28 18l0 0c1,-3 2,-6 4,-7 2,1 0,6 -4,7zm5 6l0 0c5,-4 11,-20 17,-15 -7,3 -12,15 -17,15zm-36 18l0 0c0,-3 2,-5 4,-7 2,1 -1,6 -4,7zm12 1l0 0c-8,1 -8,9 -14,12 -1,-5 9,-12 14,-18 -1,3 2,2 0,6zm1 4l0 0c-7,2 0,9 -7,12 2,-6 1,-3 0,-7 1,-3 6,-10 7,-5zm-24 28l0 0c0,-5 2,-7 5,-9 2,1 0,8 -5,9zm84 -23l0 0c0,-5 3,-7 6,-9 -2,3 -2,7 -6,9zm4 0l0 0c-1,-3 4,-9 6,-6 -3,1 -2,6 -6,6zm-16 8l0 0c0,-3 -4,0 -5,-1 0,-4 1,-6 5,-7 -2,4 4,4 0,8zm12 8l0 0c-1,-1 0,-6 -3,-6 -1,3 -3,4 -6,4 1,-5 2,-12 7,-15 -3,9 10,11 2,17zm-117 30l0 0c-1,-3 4,-8 5,-5 -2,1 -1,5 -5,5zm99 -24l0 0c0,-3 1,-6 4,-6 0,3 -1,6 -4,6zm-79 24l0 0c-3,4 -8,13 -12,11 0,5 -8,8 -4,12 -2,1 -4,1 -5,2 0,-4 2,-5 0,-7 6,-4 7,-6 5,-10 4,-3 3,1 4,1l1 -7c6,-1 5,4 11,-2zm-27 28l0 0c-7,2 -1,-10 3,-11 0,2 2,1 2,3 -4,6 -7,1 -5,8zm-4 13l0 0c-5,2 -3,-4 -3,-8 1,-1 1,-3 3,-4 2,6 -2,6 0,12zm-28 11l0 0c1,-4 2,-7 5,-8 0,4 -2,6 -5,8zm-311 157l0 0c-1,3 -4,11 -6,8 3,-1 3,-6 1,-7 2,-1 4,-1 5,-1zm285 -104l0 0c-7,3 -2,-14 3,-10 -4,3 0,5 -3,10zm-294 120l0 0c-2,6 -6,17 -12,16 6,-6 -1,-5 -1,-9 5,-2 6,1 8,2 -1,-5 2,-11 5,-9zm-18 29l0 0c2,-2 2,-6 5,-7 4,2 -5,12 -5,7zm357 -116l0 0c1,-4 3,-7 6,-9 1,5 -3,7 -6,9zm-8 18l0 0c3,5 -3,4 -5,7 5,0 4,5 4,8 -5,2 -1,-9 -6,-6 0,1 1,2 1,4 -1,2 -7,6 -7,3 5,-4 8,-29 13,-19 3,-3 6,-13 10,-11 1,4 -6,14 -10,14zm2 9l0 0c1,-6 4,-10 8,-14 -2,6 -3,11 -8,14zm-381 157l0 0c-4,3 -5,15 -10,13 3,-4 5,-15 10,-13zm372 -140l0 0c-2,1 -4,2 -5,1 5,-3 6,-6 4,-9 5,-1 2,4 1,8zm-18 12l0 0c-3,0 -1,5 -6,4 1,-3 6,-9 6,-4zm17 2l0 0c-2,1 -4,1 -4,-1 1,0 3,-1 3,-2 1,-1 1,-3 2,-3 0,2 -1,4 -1,6zm-399 173l0 0c-1,-2 -2,-2 -2,-5 4,0 4,-4 6,-5 0,4 -1,8 -4,10zm362 -143l0 0c-1,-2 -4,2 -5,3 0,1 2,1 2,3 -3,5 -7,4 -7,-2 4,-4 7,-9 11,-13 -1,5 0,7 -1,9zm-377 157l0 0 4 -3c1,5 -5,8 -4,3zm359 -137l0 0c-1,4 -3,7 -6,8 0,-4 2,-6 5,-8 0,0 0,1 1,0zm-376 184l0 0c-2,2 -3,4 -5,5 0,-1 -5,-1 -2,-4 1,3 3,1 4,-2 -2,0 -3,-1 -4,-2 3,-1 2,-5 5,-5 -1,6 3,2 2,8zm363 -153l0 0c-3,3 -7,13 -10,12 2,-2 3,-6 5,-9 -3,1 -3,3 -5,4 1,-4 2,-8 0,-9 4,0 7,0 10,2zm-374 172l0 0c-1,-3 -3,-2 -2,-6 2,-1 6,2 2,6zm359 -156l0 0c-5,3 -7,1 -9,-2 2,-1 3,-2 4,-3 0,3 6,-1 5,5zm-367 162l0 0c-1,-3 0,-6 3,-7 1,4 0,6 -3,7zm361 -149l0 0c3,-5 5,-11 10,-14 -3,5 -3,7 -5,11 0,-1 -1,-1 -3,-1 0,2 0,4 -2,4zm-7 5l0 0c0,-1 -2,0 -3,-1 1,-7 5,-11 9,-15 0,4 3,3 2,7 -3,2 -4,7 -8,9zm-364 170l0 0c0,-4 0,-8 -3,-8 3,-2 3,-6 6,-8 0,8 4,-1 5,3 -5,3 -5,10 -8,13zm366 -159l0 0c-2,1 -2,0 -4,1 -1,1 0,1 1,2 -4,3 -4,-1 -4,-4 2,-1 4,-1 4,-3 -2,1 -1,-1 -1,-3 1,-1 2,-1 3,-2 -1,7 -1,6 1,9zm-16 7l0 0c0,4 -4,6 -6,9 -1,-5 3,-11 6,-9zm-8 23l0 0c-2,3 -2,6 -5,8 -1,-4 2,-5 4,-8 -1,0 -3,1 -3,0 2,-1 3,-1 4,0zm-18 17l0 0c3,-2 3,-6 7,-8 0,4 -4,11 -7,8zm0 -2l0 0c-1,0 -1,1 -1,3 -2,1 -4,1 -4,-1 1,-1 2,-3 3,-4 0,2 2,0 2,2zm-14 20l0 0c1,-7 4,-12 9,-15 -1,6 -7,9 -9,15zm5 7l0 0c-3,-5 1,-10 5,-14 0,6 -1,11 -5,14zm-22 17l0 0c-1,0 -2,-1 -4,1 0,-6 1,-10 7,-12 -3,5 -4,10 -3,11zm-25 59l0 0c0,-3 -2,3 -5,2 -1,-3 5,-7 6,-5 -2,1 1,2 -1,3zm-291 488l0 0c-3,-1 -5,1 -7,-1 3,-6 6,-8 9,-11l3 2c-2,3 -3,3 -4,4 0,1 -1,3 -1,6zm-28 6l0 0c3,3 8,-7 7,2 -2,-2 -8,3 -7,-2zm-83 -438l0 0c8,8 -3,-10 8,-3 -2,5 -2,4 -1,8 -2,0 -7,0 -7,-5zm12 7l0 0c0,2 -1,4 0,5 2,0 6,-3 6,-1 -2,1 -4,1 -5,2 0,-1 -2,0 -4,0 -2,-1 -3,-2 -5,-4 2,-2 4,-5 8,-2zm-11 427l0 0c-3,-1 -5,-4 -7,-7 0,-2 3,2 6,1 2,4 0,3 1,6zm-8 -449l0 0c1,-4 4,-3 6,-4 0,3 5,4 3,8 -4,-2 -4,-3 -9,-4zm-7 429l0 0c3,6 3,0 6,6 0,2 -8,-2 -6,-6zm7 -432l0 0c-2,-2 -3,-4 -3,-6 2,0 4,1 5,3 -2,-1 -2,1 -2,3zm-212 74l0 0c-1,4 5,6 5,11 -5,-2 -9,-10 -5,-11zm-8 -16l0 0c2,5 5,10 5,15 -4,-4 -6,-9 -5,-15zm-6 -6l0 0 4 3c0,2 0,3 -1,4 -3,-1 -3,-4 -3,-7zm-28 -361l0 0c1,-4 4,-2 7,0 4,4 6,11 12,18 0,1 0,3 -2,3 -5,-4 -12,-14 -17,-21zm-12 -27l0 0c1,-2 2,-3 3,-3 4,6 9,12 11,19 -5,-5 -9,-11 -14,-16zm-47 210l0 0c3,0 9,6 9,11 -5,-3 -7,-7 -9,-11zm29 -238l0 0c7,8 11,15 18,17l-1 5c-4,-6 -15,-9 -17,-22zm-78 175l0 0c-2,-2 -3,-3 -4,-5 1,-6 8,1 8,-7 2,4 6,6 5,11 -3,-7 -8,-7 -9,1zm50 -250l0 0c0,-3 3,-1 5,-1 0,2 3,4 1,7 -3,-2 -3,-4 -6,-6zm-37 60l0 0c0,-3 -6,-3 -8,-4 0,-5 3,-2 4,-4 -1,-1 -1,-2 -1,-3 3,5 4,9 7,5 1,3 0,5 -2,6zm-46 63l0 0c-1,3 4,4 2,7 -3,-1 -5,-8 -2,-7zm-11 -29l0 0c4,5 8,9 8,15 -2,-5 -8,-9 -8,-15zm-7 -20l0 0c3,2 5,4 4,8 -3,-2 -4,-5 -4,-8zm-12 6l0 0c1,-3 1,-4 -1,-4 0,-5 6,3 5,5 -2,-1 -3,-1 -4,-1zm-48 -188l0 0c2,-1 6,4 7,7 -2,0 -8,-3 -7,-7z"/>
   <path class="fil1" d="M5411 835c-1,-2 -3,2 -3,-1 -2,14 -14,19 -19,31 8,-6 14,-14 20,-22 0,-2 -2,-1 -3,-1 2,-2 2,-5 5,-7z"/>
   <path class="fil1" d="M5712 115c-3,2 -4,7 -6,9 2,-2 6,-4 6,-9z"/>
   <path class="fil1" d="M5591 272c1,-3 0,-4 0,-5 -2,1 -1,3 -2,5 -1,0 -2,-1 -3,0 0,4 3,1 5,0z"/>
   <path class="fil1" d="M5774 223c2,-4 -5,4 -7,1 -1,3 1,3 2,5 5,-2 0,-4 5,-6z"/>
   <path class="fil1" d="M5696 246c1,-3 0,-4 -3,-3 2,1 0,3 -2,5 0,3 4,-2 5,-2z"/>
   <path class="fil1" d="M5717 248c1,0 0,2 3,1 1,-3 1,-4 0,-6 -2,1 -2,5 -4,5 -1,2 1,1 1,0z"/>
   <path class="fil1" d="M5542 296c-5,1 -1,3 -1,5 -1,3 -2,-1 -5,1 -1,7 -6,11 -11,14 1,2 1,3 2,5 1,-5 8,-13 15,-18 -1,-4 1,-5 0,-7z"/>
   <path class="fil1" d="M5736 252c-8,10 -15,16 -21,28 2,0 4,-3 4,-1 4,-2 1,-3 4,-7 2,3 11,-11 10,-6 4,0 4,-10 3,-14z"/>
   <path class="fil1" d="M5487 323c-4,0 -12,10 -16,17 5,-6 11,-11 16,-17z"/>
   <path class="fil1" d="M5916 227c-2,-1 1,-3 1,-7 -6,4 -4,5 -5,8 0,2 2,-1 4,-1z"/>
   <path class="fil1" d="M5717 272c-2,4 -6,6 -7,11 5,-1 5,-7 7,-11z"/>
   <path class="fil1" d="M5522 338c2,-3 -2,-1 -1,-3 -3,1 -3,4 -5,6 0,3 3,-4 6,-3z"/>
   <path class="fil1" d="M5815 282c0,1 1,1 2,1 0,3 -3,3 -2,7 3,-3 7,-5 7,-11 -4,2 -3,4 -7,3z"/>
   <path class="fil1" d="M5705 343c-2,5 -4,2 -8,7 0,4 1,4 1,7 2,-5 8,-11 7,-14z"/>
   <path class="fil1" d="M5433 423c3,0 -3,5 0,6 4,-1 2,-5 6,-5 -3,-1 0,-7 -6,-6 -1,3 -2,6 -5,7 0,3 4,-2 5,-2z"/>
   <path class="fil1" d="M5418 436c-5,2 -4,9 -11,10 0,5 4,-1 4,2 2,-4 5,-8 7,-12z"/>
   <path class="fil1" d="M5406 455c2,0 2,1 4,0 3,-6 8,-10 13,-13 -5,-3 -8,8 -15,8 0,5 -4,6 -8,7 -4,6 -2,7 -5,12 2,-1 4,-2 6,-4 1,-3 -2,-1 -2,-3 0,-1 1,-1 2,-3 1,0 0,4 4,2 2,-3 2,-4 1,-6z"/>
   <path class="fil1" d="M5796 414c0,-1 -1,-1 -1,0 -2,1 -3,1 -3,0 -2,1 -2,3 -2,5 2,-1 4,-3 6,-5z"/>
   <path class="fil1" d="M5713 478c0,-3 -13,7 -14,13 2,0 5,-7 6,-3 4,-2 3,-9 8,-10z"/>
   <path class="fil1" d="M5669 512c-3,2 -8,0 -10,7 5,3 8,-8 12,-3 2,-4 -4,0 -2,-4z"/>
   <path class="fil1" d="M5455 600c-1,-4 -4,2 -5,2 -1,3 1,3 -1,4 0,1 1,1 1,1 1,0 2,0 3,0 -2,0 -1,-8 0,-4 2,-1 0,-2 2,-3z"/>
   <path class="fil1" d="M5585 598c-2,-1 -8,6 -11,8 -2,-4 -10,1 -13,2 3,3 8,3 12,5 -4,-6 5,-5 10,-10 -1,-2 -1,-3 2,-5z"/>
   <path class="fil1" d="M5552 616c-3,-1 -9,8 -14,11 0,4 6,-5 6,0 1,-2 3,-9 8,-11z"/>
   <path class="fil1" d="M5567 616c1,-5 -2,-2 -3,0 -2,1 -3,0 -3,-1 -1,0 -2,2 -4,3 2,-1 7,1 0,4 0,2 2,0 4,0 1,-3 3,-5 6,-6z"/>
   <path class="fil1" d="M5528 654c2,0 3,-2 4,-3 2,-4 -3,-2 -1,-6 -2,3 -1,4 -3,9z"/>
   <path class="fil1" d="M5520 711c-2,-2 0,-2 0,-5 -4,2 0,-4 -5,-1 0,1 -1,3 -1,4 3,0 5,0 1,3 0,4 2,-2 5,-1z"/>
   <path class="fil1" d="M5432 738c3,-1 -1,-1 -1,1 -1,-1 -2,-2 -1,-5 -3,2 -3,9 1,7 0,-1 0,-2 1,-3z"/>
   <path class="fil1" d="M5289 776c-2,0 -1,1 -1,1 0,4 -6,3 -5,8 5,0 5,-5 8,-7 0,-2 -3,-1 -2,-2z"/>
   <path class="fil1" d="M5449 802c4,-2 7,-5 9,-9 -6,1 -9,6 -14,7 2,5 -4,9 -6,15 0,-1 13,-10 11,-13z"/>
   <path class="fil1" d="M5436 809c-4,4 -5,11 -11,13 5,6 -12,12 -14,20 0,1 3,0 3,2 2,-4 3,-10 9,-10 3,-7 9,-11 13,-16 0,-2 -3,-1 -5,0 1,-4 5,-4 5,-9z"/>
   <path class="fil1" d="M5455 811c-6,-4 -21,15 -22,21 7,-7 13,-21 22,-21z"/>
   <path class="fil1" d="M5398 867c-3,3 -7,6 -9,9 2,2 7,-6 9,-9z"/>
   <path class="fil1" d="M5359 910c-6,3 -17,15 -23,24 6,-1 6,-8 10,-6 -3,-4 6,-6 6,-11 4,-2 2,5 6,0 -4,-1 -3,-3 1,-7z"/>
   <path class="fil1" d="M5366 913c-3,-3 -7,6 -10,9 1,3 4,-3 6,-2 0,-5 -1,-5 4,-7z"/>
   <path class="fil1" d="M5335 935c-6,5 -12,10 -16,16 9,3 13,-9 16,-16z"/>
   <path class="fil1" d="M5258 1021c-2,2 -4,5 -7,10l4 -1c-1,-5 3,-5 3,-9z"/>
   <path class="fil1" d="M5228 1076l1 -8c-5,3 0,7 -6,10 0,3 3,-2 5,-2z"/>
   <path class="fil1" d="M5187 1122c-6,-2 -1,8 -9,7 0,1 1,2 0,4 6,-2 6,-7 9,-11z"/>
   <path class="fil1" d="M5127 1204c3,-2 -1,-2 -1,0 -2,1 -2,-2 -3,-4 -2,3 -2,8 -6,9 2,7 -4,9 -7,15 -2,4 4,-1 2,4 2,-6 8,-9 9,-16 2,-1 2,1 5,0 -2,-1 0,-6 1,-8z"/>
   <path class="fil1" d="M5025 1341c-6,3 -4,12 -10,14 0,1 3,0 4,-1 0,-6 6,-7 6,-13z"/>
   <path class="fil1" d="M4966 1436c-2,-2 -10,9 -8,11 3,-4 4,-9 8,-11z"/>
   <path class="fil1" d="M4896 1517c1,2 3,3 4,5 2,-2 3,-5 3,-8 -3,0 -2,3 -3,5 -2,1 2,-7 -4,-2z"/>
   <path class="fil1" d="M4656 1960c-1,-5 -7,11 -10,13 -1,2 0,2 0,2 1,-1 2,-1 3,-2 1,-7 4,-8 7,-13z"/>
   <path class="fil1" d="M4502 1664c0,-2 -1,-2 -1,-4 -2,4 -1,0 -2,-1 0,1 0,2 -1,2 0,1 0,1 -1,2 3,-1 2,3 5,1z"/>
   <path class="fil1" d="M4199 1658c-3,-5 -3,2 -6,-3 0,2 0,2 0,4l2 1c0,-6 5,3 4,-2z"/>
   <path class="fil1" d="M4185 1611c1,-7 -5,3 -6,-4 -3,-1 0,6 3,6 0,-2 1,-3 3,-2z"/>
  </g>
  <path class="fil0" d="M3070 1361c144,0 262,118 262,262 0,144 -118,261 -262,261 -144,0 -261,-117 -261,-261 0,-144 117,-262 261,-262zm0 -238l0 0c-276,0 -500,224 -500,500 0,276 224,500 500,500 276,0 500,-224 500,-500 0,-276 -224,-500 -500,-500z"/>
  <path class="fil0" d="M564 1369c30,-75 90,-142 143,-197 6,-7 12,-13 19,-19l4 -4 -3 -2c-18,-6 -37,-12 -59,-14 -282,-38 -397,77 -426,121l0 -102 -242 0 0 931 250 0 0 -507c0,-35 4,-65 14,-91 10,-27 23,-49 40,-66 18,-17 119,-76 260,-50z"/>
  <path class="fil0" d="M1379 1825c-27,19 -55,34 -86,46 -41,15 -81,23 -122,23 -29,0 -57,-4 -83,-11 -27,-8 -50,-19 -71,-35 -21,-16 -39,-36 -54,-61 -14,-24 -24,-52 -31,-86l660 0c1,-11 2,-24 3,-40 1,-15 2,-30 2,-45 0,-72 -11,-139 -33,-199 -22,-60 -53,-111 -93,-154 -40,-43 -87,-77 -143,-100 -55,-24 -116,-36 -184,-36 -69,0 -133,12 -191,36 -57,24 -107,58 -148,101 -41,43 -74,95 -97,156 -23,60 -34,127 -34,200 0,73 12,139 35,199 24,60 57,111 100,154 42,42 93,75 152,99 60,23 125,35 196,35 79,0 152,-12 217,-34 46,-16 90,-39 130,-67 -49,-71 -112,-163 -125,-181zm-378 -432l0 0c34,-33 81,-50 141,-50 55,0 99,16 134,48 35,32 58,78 69,139l-412 0c11,-59 34,-104 68,-137z"/>
  <path class="fil0" d="M2401 1604c-54,-46 -131,-76 -233,-92l-82 -12c-21,-3 -41,-7 -60,-10 -18,-4 -34,-8 -48,-14 -13,-6 -24,-13 -32,-22 -8,-9 -12,-20 -12,-34 0,-25 12,-46 36,-61 23,-16 59,-23 107,-23 26,0 53,2 80,6 28,5 54,11 80,18 26,8 51,16 74,25 23,9 44,18 63,27l84 -195c-60,-31 -122,-54 -184,-68 -63,-14 -131,-21 -204,-21 -62,0 -117,7 -165,21 -49,14 -90,34 -124,60 -34,26 -59,58 -77,95 -18,38 -27,81 -27,129 0,158 107,252 321,282l76 11c55,7 94,18 118,31 25,14 37,32 37,54 0,28 -14,49 -42,64 -29,16 -72,23 -130,23 -70,0 -130,-8 -181,-25 -25,-8 -48,-18 -70,-28 -27,38 -80,116 -121,175 20,13 40,24 54,30 35,14 71,25 107,34 36,8 72,14 108,18 35,3 69,5 101,5 67,0 128,-8 181,-23 53,-15 98,-36 134,-63 37,-27 64,-60 84,-100 19,-39 28,-82 28,-130 0,-80 -27,-142 -81,-187z"/>
  <polygon class="fil0" points="5527,2108 5144,1177 5387,1177 5657,1844 5929,1177 6163,1177 5784,2108 "/>
 </g>
</svg>
